<svg xmlns="http://www.w3.org/2000/svg" viewBox="0 0 500 500"><!--10 Organizing proyects (1)--><g id="freepik--Floor--inject-1--inject-27"><ellipse id="freepik--floor--inject-1--inject-27" cx="249.05" cy="309.88" rx="235.98" ry="149.1" style="fill:#f5f5f5"></ellipse></g><g id="freepik--Shadows--inject-1--inject-27"><path id="freepik--Shadow--inject-1--inject-27" d="M284.09,398.13c-13.28,7.66-13.28,20.09,0,27.76s34.8,7.66,48.07,0,13.28-20.1,0-27.76S297.36,390.46,284.09,398.13Z" style="fill:#e0e0e0"></path><ellipse id="freepik--shadow--inject-1--inject-27" cx="394" cy="364.03" rx="27.22" ry="15.72" style="fill:#e0e0e0"></ellipse><path id="freepik--shadow--inject-1--inject-27" d="M137.76,370.65l-6.5-3.75c-2-1.18-2-3.1,0-4.28l87.81-50.51a8.14,8.14,0,0,1,7.41,0l6.49,3.74c2.05,1.18,2.05,3.1,0,4.28l-87.81,50.52A8.18,8.18,0,0,1,137.76,370.65Z" style="fill:#e0e0e0"></path><path id="freepik--shadow--inject-1--inject-27" d="M57.68,377.48l-16.16-9.34a1.34,1.34,0,0,1,0-2.53l214.76-124a4.83,4.83,0,0,1,4.38,0L276.83,251a1.34,1.34,0,0,1,0,2.53l-214.77,124A4.89,4.89,0,0,1,57.68,377.48Z" style="fill:#e0e0e0"></path><path id="freepik--shadow--inject-1--inject-27" d="M283.67,263.45l-26.44-15.27a1.34,1.34,0,0,1,0-2.53l74.37-42.94a4.85,4.85,0,0,1,4.39,0L362.42,218a1.34,1.34,0,0,1,0,2.53l-74.37,42.94A4.89,4.89,0,0,1,283.67,263.45Z" style="fill:#e0e0e0"></path><path id="freepik--shadow--inject-1--inject-27" d="M281.38,206.4l41.92,24.2a6.21,6.21,0,0,0,5.63,0l57.9-33.77c1.56-.9,1.56-2.36,0-3.25l-41.91-24.2a6.21,6.21,0,0,0-5.63,0l-57.91,33.77C279.83,204.05,279.83,205.51,281.38,206.4Z" style="fill:#e0e0e0"></path></g><g id="freepik--Plants--inject-1--inject-27"><g id="freepik--plants--inject-1--inject-27"><path d="M57,336.91s-.53-11.24-5.52-20.27-12.25-14.93-19.33-16-13.26,5.14-5.94,10.13,20.55,10.48,25.67,27.71Z" style="fill:#5868FF"></path><g style="opacity:0.2"><path d="M57,336.91s-.53-11.24-5.52-20.27-12.25-14.93-19.33-16-13.26,5.14-5.94,10.13,20.55,10.48,25.67,27.71Z"></path></g><path d="M55.1,333.88l.08,0a.38.38,0,0,0,.24-.48c-6.29-19-20.08-27.66-26.49-29.58a.38.38,0,0,0-.48.25.39.39,0,0,0,.26.48c6.28,1.88,19.79,10.4,26,29.09A.39.39,0,0,0,55.1,333.88Z" style="fill:#fff"></path><path d="M16.78,332.27c.59,1.59,2.22,2.51,3.75,3.24s3.18,1.53,3.93,3c1.52,3.06-1.56,7,.08,10A5.33,5.33,0,0,0,28,350.9c1.16.29,2.35.37,3.53.55a15.85,15.85,0,0,0,1.69,0,7.69,7.69,0,0,1,4.85.84c2.25,1.47,2.78,4.48,4.05,6.85a11.16,11.16,0,0,0,7.57,5.48c1,.21,3,.52,4.11,0a1.71,1.71,0,0,0,.23-.13l0,0a4.44,4.44,0,0,0,.44-.46l0-.07c.52-1.5-.06-3.14,0-4.72a2.83,2.83,0,0,1,0-.29c.19-1.83.36-3.65.52-5.48q.47-5.06.77-10.12c.12-2.19.54-4.57-.25-6.7-.88-2.33-3.43-2.55-4.25-4.84-.32-.92-.47-1.88-.78-2.8a7.86,7.86,0,0,0-6.38-5.11c-4.44-.52-8.68,2.83-13.11,2.21a34.11,34.11,0,0,1-3.37-.88c-3.56-.91-7.8-.16-10,2.76A4.69,4.69,0,0,0,16.78,332.27Z" style="fill:#5868FF"></path><path d="M55.38,356.92h0a.39.39,0,0,0,.3-.45C51.07,333,27,328,21.22,328.06a.38.38,0,0,0,0,.76c5.6,0,29.19,4.8,33.73,27.8A.38.38,0,0,0,55.38,356.92Z" style="fill:#fff"></path><path d="M29.1,343.44a.35.35,0,0,0,.21-.1,20.27,20.27,0,0,1,16.87-3.57.38.38,0,0,0,.45-.3.37.37,0,0,0-.29-.45,21.09,21.09,0,0,0-17.54,3.75.39.39,0,0,0,.3.67Z" style="fill:#fff"></path></g></g><g id="freepik--Board--inject-1--inject-27"><polygon points="68.02 362.19 267.48 247.04 267.48 78.34 68.02 193.5 68.02 362.19" style="fill:#5868FF"></polygon><polygon points="59.89 188.81 68.02 193.5 267.48 78.34 275.61 64.26 59.89 188.81" style="fill:#37474f"></polygon><polygon points="275.61 251.7 275.61 64.22 267.48 78.34 267.48 247.04 275.61 251.7" style="fill:#37474f"></polygon><polygon points="59.89 188.81 68.02 193.5 68.02 362.19 59.89 376.28 59.89 188.81" style="fill:#37474f"></polygon><polygon points="68.02 362.19 267.48 247.04 275.61 251.73 59.89 376.28 68.02 362.19" style="fill:#37474f"></polygon><g style="opacity:0.5"><polygon points="59.89 188.81 68.02 193.5 267.48 78.34 275.61 64.26 59.89 188.81" style="fill:#455a64"></polygon></g><g style="opacity:0.5"><polygon points="68.02 362.19 267.48 247.04 275.61 251.73 59.89 376.28 68.02 362.19" style="fill:#455a64"></polygon></g><polygon points="275.61 64.26 270.19 61.13 54.47 185.68 59.89 188.81 275.61 64.26" style="fill:#455a64"></polygon><polygon points="54.47 185.68 59.89 188.81 59.89 376.28 54.47 373.15 54.47 185.68" style="fill:#263238"></polygon><g style="opacity:0.1;mix-blend-mode:multiply"><polygon points="267.48 78.34 264.77 79.91 264.77 245.47 68.02 359.06 68.02 362.19 267.48 247.04 267.48 78.34"></polygon></g><polygon points="116.39 175.63 71.87 201.33 71.88 264.58 116.39 238.88 116.39 175.63" style="opacity:0.1"></polygon><polygon points="73.59 202.31 118.1 176.61 121.53 178.59 77.01 204.29 73.59 202.31" style="fill:#fafafa"></polygon><polygon points="73.59 202.31 73.59 265.56 77.01 267.54 77.01 204.29 73.59 202.31" style="fill:#e0e0e0"></polygon><polygon points="121.53 178.59 77.01 204.29 77.01 267.54 121.53 241.84 121.53 178.59" style="fill:#f5f5f5"></polygon><polygon points="80.44 206.26 118.1 184.52 118.1 231.96 80.44 253.7 80.44 206.26" style="fill:#5868FF"></polygon><polygon points="80.44 206.26 118.1 184.52 118.1 231.96 80.44 253.7 80.44 206.26" style="fill:#fff;opacity:0.75"></polygon><polygon points="80.44 237.88 95.11 216.12 110.85 226.47 105.85 220.94 110.77 213.24 118.1 218.78 118.1 231.96 80.44 253.7 80.44 237.88" style="fill:#5868FF"></polygon><path d="M106,200.8a7.58,7.58,0,0,0-3.43,5.93c0,2.19,1.54,3.07,3.43,2a7.57,7.57,0,0,0,3.42-5.93C109.46,200.59,107.93,199.71,106,200.8Z" style="fill:#5868FF"></path><path d="M102.13,198.25l-.08.08a.62.62,0,0,1-.21.16c-.16.1-.24,0-.39-.09l-1.17-.69c-.48-.28-1-.61-1.65-1s-1.24-.75-1.87-1.15c-.19-.13.16-.75.37-.65l1.93,1,1.68.94,1.18.67c.14.09.28.1.28.29a1.27,1.27,0,0,1,0,.26Z" style="fill:#455a64"></path><path d="M103.34,199.1c-.91,1.57-2.39,2.42-3.94,1.58l-.09-.05,0,0a1.71,1.71,0,0,1-.65-1.51A5.22,5.22,0,0,1,101,195a1.73,1.73,0,0,1,1.58-.21l.09.05.14.09C104.25,195.87,104.24,197.55,103.34,199.1Z" style="fill:#37474f"></path><path d="M105.24,202.21l1.75-3a17.42,17.42,0,0,1-3.69-2.56l-.07-.06,0-.06h0a1,1,0,0,0-1.16,0,3.4,3.4,0,0,0-1.54,2.67,1.07,1.07,0,0,0,.45,1h0a.75.75,0,0,0,.29.09A16.15,16.15,0,0,1,105.24,202.21Z" style="fill:#455a64"></path><path d="M108.5,199.79a1.85,1.85,0,0,0-1.84-1.85,1.76,1.76,0,0,0-.66.13h0l-.07,0a2.53,2.53,0,0,0-.29.14,4.12,4.12,0,0,0-1.87,3.23,1.68,1.68,0,0,0,.06.47,1.84,1.84,0,0,0,3.66-.32c0-.06,0-.11,0-.17A1.84,1.84,0,0,0,108.5,199.79Z" style="fill:#37474f"></path><path d="M106.66,198.85c1-.59,1.86-.11,1.86,1.08a4.14,4.14,0,0,1-1.86,3.24c-1,.59-1.87.11-1.87-1.08A4.13,4.13,0,0,1,106.66,198.85Z" style="fill:#455a64"></path><polygon points="130.19 175.7 250.03 106.5 250.03 209.31 130.19 278.5 130.19 175.7" style="opacity:0.1"></polygon><polygon points="135.22 178.59 255.07 109.39 255.07 212.19 135.22 281.39 135.22 178.59" style="fill:#f5f5f5"></polygon><polygon points="131.79 176.61 131.79 279.41 135.22 281.39 135.22 178.59 131.79 176.61" style="fill:#e0e0e0"></polygon><polygon points="255.07 109.39 251.64 107.42 131.79 176.61 135.22 178.59 255.07 109.39" style="fill:#5868FF"></polygon><g style="opacity:0.8"><polygon points="255.07 109.39 251.64 107.42 131.79 176.61 135.22 178.59 255.07 109.39" style="fill:#fff"></polygon></g><polygon points="131.79 176.61 135.22 178.59 135.22 198.36 131.79 196.38 131.79 176.61" style="fill:#5868FF"></polygon><g style="opacity:0.5"><polygon points="131.79 176.61 135.22 178.59 135.22 198.36 131.79 196.38 131.79 176.61" style="fill:#fff"></polygon></g><polygon points="135.22 198.36 255.07 129.16 255.07 109.39 135.22 178.59 135.22 198.36" style="fill:#5868FF"></polygon><g style="opacity:0.65"><polygon points="135.22 198.36 255.07 129.16 255.07 109.39 135.22 178.59 135.22 198.36" style="fill:#fff"></polygon></g><path d="M187.74,153.54l-3.13,1.8a.15.15,0,0,1-.19,0,.33.33,0,0,1-.07-.24v-1a.74.74,0,0,1,.07-.32.65.65,0,0,1,.19-.23l4.15-2.4a.15.15,0,0,1,.19,0,.3.3,0,0,1,.07.23v6.21a7.26,7.26,0,0,1-.68,3.26,5,5,0,0,1-2,2.1,2.61,2.61,0,0,1-1.17.41,1.13,1.13,0,0,1-.81-.23,1.58,1.58,0,0,1-.48-.75,4.25,4.25,0,0,1-.19-1.15.66.66,0,0,1,.07-.33.49.49,0,0,1,.19-.21l.77-.45a.18.18,0,0,1,.16,0c.05,0,.08.07.1.15a1.93,1.93,0,0,0,.13.5.82.82,0,0,0,.26.34.65.65,0,0,0,.4.11,1.34,1.34,0,0,0,.57-.21,2.43,2.43,0,0,0,1-1.11,3.93,3.93,0,0,0,.36-1.75Z" style="fill:#455a64"></path><path d="M190.33,153.24a.76.76,0,0,1,.08-.32.46.46,0,0,1,.18-.22l.72-.42a.14.14,0,0,1,.18,0,.33.33,0,0,1,.08.24v3.73a2.54,2.54,0,0,0,.24,1.27c.17.26.43.28.8.06a1.75,1.75,0,0,0,.77-1,4.27,4.27,0,0,0,.27-1.57v-3.73a.79.79,0,0,1,.08-.32.46.46,0,0,1,.18-.22l.72-.42a.14.14,0,0,1,.18,0,.29.29,0,0,1,.08.24v6.84a.67.67,0,0,1-.08.33.51.51,0,0,1-.18.22l-.72.42a.14.14,0,0,1-.18,0,.29.29,0,0,1-.08-.23v-.34a7.44,7.44,0,0,1-.54.93,2.58,2.58,0,0,1-.79.72,1.64,1.64,0,0,1-1,.28.9.9,0,0,1-.61-.4,2.31,2.31,0,0,1-.32-.91,7,7,0,0,1-.1-1.26Z" style="fill:#455a64"></path><path d="M200.86,154a.77.77,0,0,1-.07.32.46.46,0,0,1-.18.22l-.73.42a.14.14,0,0,1-.18,0,.33.33,0,0,1-.08-.24V151a2.32,2.32,0,0,0-.26-1.26c-.18-.25-.46-.26-.83,0a1.92,1.92,0,0,0-.79,1,3.94,3.94,0,0,0-.29,1.58V156a.79.79,0,0,1-.08.32.46.46,0,0,1-.18.22l-.73.42a.14.14,0,0,1-.18,0,.33.33,0,0,1-.07-.24v-6.84a.71.71,0,0,1,.07-.32.49.49,0,0,1,.18-.23l.73-.42a.14.14,0,0,1,.18,0,.3.3,0,0,1,.08.23v.34a5.53,5.53,0,0,1,.58-1,2.63,2.63,0,0,1,.79-.7,1.62,1.62,0,0,1,1-.29.93.93,0,0,1,.63.39,2.07,2.07,0,0,1,.34.9,6.81,6.81,0,0,1,.1,1.25Z" style="fill:#455a64"></path><path d="M201.88,150a8.38,8.38,0,0,1,.17-1.64,7.18,7.18,0,0,1,.46-1.53,5.8,5.8,0,0,1,.74-1.27,3.28,3.28,0,0,1,1-.87,1.6,1.6,0,0,1,1-.26,1.14,1.14,0,0,1,.74.38,2.27,2.27,0,0,1,.47.92,4.88,4.88,0,0,1,.17,1.33v.66a.8.8,0,0,1-.08.33.46.46,0,0,1-.18.22l-3.19,1.84a1.32,1.32,0,0,0,.09.54.56.56,0,0,0,.25.29.58.58,0,0,0,.35.07,1.21,1.21,0,0,0,.41-.15,2.61,2.61,0,0,0,.5-.38A2.45,2.45,0,0,0,205,150a2.36,2.36,0,0,1,.17-.26,1,1,0,0,1,.19-.15l.76-.44a.14.14,0,0,1,.18,0,.29.29,0,0,1,.08.24,2.74,2.74,0,0,1-.15.61,4.28,4.28,0,0,1-.42.87,5.64,5.64,0,0,1-.68.93,3.87,3.87,0,0,1-.94.76,1.67,1.67,0,0,1-1,.27,1,1,0,0,1-.74-.39,2.3,2.3,0,0,1-.46-1A6.07,6.07,0,0,1,201.88,150Zm2.34-3.55a1.81,1.81,0,0,0-.47.4,2.78,2.78,0,0,0-.33.51,2.92,2.92,0,0,0-.21.56c0,.19-.07.36-.09.52l2.16-1.25a3.07,3.07,0,0,0-.07-.42.78.78,0,0,0-.17-.34.42.42,0,0,0-.32-.14A.9.9,0,0,0,204.22,146.44Z" style="fill:#455a64"></path><path d="M143.35,203.54c0,1.1.82,1.51,1.83.93l9-5.19a3.91,3.91,0,0,0,1.83-3c0-1.09-.82-1.5-1.83-.92l-9,5.18A3.93,3.93,0,0,0,143.35,203.54Z" style="fill:#455a64"></path><path d="M158.51,194.79c0,1.09.82,1.51,1.82.92l9-5.18a3.91,3.91,0,0,0,1.83-3c0-1.09-.82-1.51-1.83-.92l-9,5.18A3.91,3.91,0,0,0,158.51,194.79Z" style="fill:#455a64"></path><path d="M173.67,186c0,1.09.81,1.5,1.82.92l9-5.18a3.9,3.9,0,0,0,1.82-3c0-1.09-.81-1.51-1.82-.93l-9,5.19A3.93,3.93,0,0,0,173.67,186Z" style="fill:#455a64"></path><path d="M188.83,177.29c0,1.09.81,1.5,1.82.92l9-5.18a3.94,3.94,0,0,0,1.82-3c0-1.1-.81-1.51-1.82-.93l-9,5.19A3.9,3.9,0,0,0,188.83,177.29Z" style="fill:#455a64"></path><path d="M204,168.54c0,1.09.82,1.5,1.83.92l9-5.19a3.91,3.91,0,0,0,1.83-3c0-1.09-.82-1.5-1.83-.92l-9,5.19A3.9,3.9,0,0,0,204,168.54Z" style="fill:#455a64"></path><path d="M219.14,159.78c0,1.1.82,1.51,1.83.93l9-5.19a3.91,3.91,0,0,0,1.83-3c0-1.09-.82-1.5-1.83-.92l-9,5.18A3.93,3.93,0,0,0,219.14,159.78Z" style="fill:#455a64"></path><path d="M234.3,151c0,1.09.82,1.51,1.82.92l9-5.18a3.91,3.91,0,0,0,1.83-3c0-1.09-.82-1.51-1.83-.92l-9,5.18A3.93,3.93,0,0,0,234.3,151Z" style="fill:#455a64"></path><path d="M248.22,208.66a.42.42,0,0,1-.42-.42V152.89a.42.42,0,1,1,.84,0v55.35A.42.42,0,0,1,248.22,208.66Z" style="fill:#e0e0e0"></path><path d="M233.05,217.42a.42.42,0,0,1-.42-.42V161.64a.43.43,0,0,1,.85,0V217A.42.42,0,0,1,233.05,217.42Z" style="fill:#e0e0e0"></path><path d="M217.89,226.17a.42.42,0,0,1-.42-.42V170.4a.42.42,0,1,1,.84,0v55.35A.42.42,0,0,1,217.89,226.17Z" style="fill:#e0e0e0"></path><path d="M202.73,234.93a.42.42,0,0,1-.43-.42V179.15a.43.43,0,0,1,.85,0v55.36A.42.42,0,0,1,202.73,234.93Z" style="fill:#e0e0e0"></path><path d="M187.56,243.68a.42.42,0,0,1-.42-.42V187.91a.42.42,0,1,1,.84,0v55.35A.42.42,0,0,1,187.56,243.68Z" style="fill:#e0e0e0"></path><path d="M172.4,252.44A.42.42,0,0,1,172,252V196.66a.42.42,0,0,1,.42-.42.42.42,0,0,1,.42.42V252A.42.42,0,0,1,172.4,252.44Z" style="fill:#e0e0e0"></path><path d="M157.23,261.19a.42.42,0,0,1-.42-.42V205.42a.42.42,0,0,1,.42-.43.42.42,0,0,1,.42.43v55.35A.42.42,0,0,1,157.23,261.19Z" style="fill:#e0e0e0"></path><path d="M142.07,270a.42.42,0,0,1-.42-.42V214.17a.42.42,0,0,1,.84,0v55.36A.42.42,0,0,1,142.07,270Z" style="fill:#e0e0e0"></path><path d="M142.07,228.43a.42.42,0,0,1-.37-.21.42.42,0,0,1,.16-.57L248,166.36a.41.41,0,0,1,.57.15.42.42,0,0,1-.15.58L142.28,228.38A.54.54,0,0,1,142.07,228.43Z" style="fill:#e0e0e0"></path><path d="M142.07,242.27a.42.42,0,0,1-.21-.79L248,180.2a.41.41,0,0,1,.57.15.42.42,0,0,1-.15.58L142.28,242.21A.42.42,0,0,1,142.07,242.27Z" style="fill:#e0e0e0"></path><path d="M142.07,256.11a.42.42,0,0,1-.21-.79L248,194a.41.41,0,0,1,.57.15.42.42,0,0,1-.15.58L142.28,256.05A.42.42,0,0,1,142.07,256.11Z" style="fill:#e0e0e0"></path><path d="M142.07,270a.39.39,0,0,1-.21-.06.41.41,0,0,1-.21-.36V214.17a.41.41,0,0,1,.21-.36L248,152.52a.45.45,0,0,1,.42,0,.44.44,0,0,1,.21.37v55.35a.44.44,0,0,1-.21.37L142.28,269.89A.39.39,0,0,1,142.07,270Zm.42-55.54V268.8L247.8,208V153.62Z" style="fill:#e0e0e0"></path><path d="M177.72,223l.85,1.83a.21.21,0,0,0,.28.11l1.93-.74c.3-.11.42.32.2.73l-1.39,2.61a.77.77,0,0,0-.1.5l.32,2.36c.06.38-.26.87-.54.84l-1.71-.22a.46.46,0,0,0-.35.2l-1.72,2.2c-.27.35-.59.23-.54-.21l.33-2.74a.41.41,0,0,0-.11-.38l-1.39-1c-.22-.16-.1-.73.21-1l1.92-1.48a.9.9,0,0,0,.28-.43l.86-2.82C177.18,222.94,177.58,222.71,177.72,223Z" style="fill:#f2a38f"></path><path d="M233,183.84c-.09-1.68-.74-3.35-2.46-4-2.12-.75-3.89.93-5.21,2.34-.34.37.28.55.56.29,1.36-1.29,3.87-2.57,5.33-.85s.7,4.24,0,6.1c-1.23,3.1-4.36,6.08-8,5.82-7.88-.59.65-14.47,5.32-15.25.37-.06.64-.65.13-.74-2.35-.38-4,1.72-5.5,3.3a18.08,18.08,0,0,0-3.77,6c-1.57,4.19.75,9.33,5.86,7.7C229.75,193.15,233.31,188.69,233,183.84Z" style="fill:#f2a38f"></path><path d="M161,246.08a12.58,12.58,0,0,0-1.65-1.91c-.22-.26-.77.05-.64.37.32.77,1,1.19,1.39,1.87l.22.35c-1-.78-3-1.08-3.88-1.29a13.51,13.51,0,0,0-7.95.73c-.25.08-.15.32.07.35a3.08,3.08,0,0,0,1.15-.21,15.59,15.59,0,0,1,4.15-.3c1.32.05,4.47.5,5.84,1.51-1.39-.23-2.85-.14-3.71.9-.1.12-.11.34.09.37.88.11,1.62-.22,2.5-.19a9.77,9.77,0,0,1,3,.52c.38.13.66-.27.64-.61A5.72,5.72,0,0,0,161,246.08Z" style="fill:#f2a38f"></path><path d="M253.23,122l-.09.08a.78.78,0,0,1-.21.16c-.16.1-.24,0-.38-.09l-1.18-.69-1.65-1c-.6-.37-1.24-.75-1.87-1.16-.19-.12.16-.75.37-.64l1.93,1c.62.33,1.19.66,1.68.94l1.18.67c.14.09.28.1.28.28a.84.84,0,0,1,0,.27Z" style="fill:#455a64"></path><path d="M254.43,122.81c-.91,1.57-2.38,2.42-3.94,1.57l-.09,0s0,0,0,0a1.68,1.68,0,0,1-.65-1.5,5.22,5.22,0,0,1,2.36-4.1,1.73,1.73,0,0,1,1.58-.21l.09,0,.14.09C255.34,119.58,255.33,121.26,254.43,122.81Z" style="fill:#37474f"></path><path d="M256.33,125.91l1.75-3a16.87,16.87,0,0,1-3.69-2.55l-.07-.07s0,0,0,0h0a1,1,0,0,0-1.16,0,3.39,3.39,0,0,0-1.54,2.66,1.08,1.08,0,0,0,.45,1h0a1,1,0,0,0,.29.09A15.89,15.89,0,0,1,256.33,125.91Z" style="fill:#455a64"></path><path d="M259.59,123.49a1.84,1.84,0,0,0-1.84-1.84,2,2,0,0,0-.66.12l0,0-.07,0-.29.13a4.15,4.15,0,0,0-1.87,3.24,1.73,1.73,0,0,0,.06.47,1.84,1.84,0,0,0,3.66-.32c0-.06,0-.12,0-.17A1.86,1.86,0,0,0,259.59,123.49Z" style="fill:#37474f"></path><path d="M257.75,122.56c1-.6,1.86-.11,1.86,1.08a4.14,4.14,0,0,1-1.86,3.24c-1,.59-1.87.11-1.87-1.08A4.1,4.1,0,0,1,257.75,122.56Z" style="fill:#455a64"></path><path d="M146.47,183.25l-.08.07a1,1,0,0,1-.21.17c-.16.1-.24,0-.39-.1l-1.17-.69c-.49-.28-1.05-.61-1.65-1l-1.88-1.15c-.19-.13.16-.75.37-.64.67.34,1.32.71,1.94,1s1.19.65,1.68.93l1.18.67c.13.1.28.1.27.29a.8.8,0,0,1,0,.26Z" style="fill:#455a64"></path><path d="M147.68,184.09c-.91,1.57-2.39,2.42-4,1.58l-.09,0,0,0a1.68,1.68,0,0,1-.66-1.51,5.23,5.23,0,0,1,2.36-4.09,1.73,1.73,0,0,1,1.59-.21l.08,0a.71.71,0,0,1,.14.1C148.59,180.86,148.57,182.55,147.68,184.09Z" style="fill:#37474f"></path><path d="M149.58,187.2l1.75-3a17.65,17.65,0,0,1-3.69-2.55.46.46,0,0,0-.07-.07l-.06-.06h0a1,1,0,0,0-1.17,0,3.43,3.43,0,0,0-1.53,2.67,1.07,1.07,0,0,0,.45,1h0a.66.66,0,0,0,.29.09A16.15,16.15,0,0,1,149.58,187.2Z" style="fill:#455a64"></path><path d="M152.84,184.78a1.85,1.85,0,0,0-1.85-1.85,1.75,1.75,0,0,0-.65.13h0l-.07,0a1.92,1.92,0,0,0-.29.14,4.11,4.11,0,0,0-1.87,3.24,2.16,2.16,0,0,0,.05.46,1.84,1.84,0,0,0,3.66-.31,1.1,1.1,0,0,0,0-.18A1.83,1.83,0,0,0,152.84,184.78Z" style="fill:#37474f"></path><path d="M151,183.84c1-.59,1.87-.11,1.87,1.08a4.14,4.14,0,0,1-1.87,3.24c-1,.6-1.87.11-1.87-1.08A4.15,4.15,0,0,1,151,183.84Z" style="fill:#455a64"></path><polygon points="75.3 287.74 75.3 339.14 117.88 314.55 117.88 263.15 75.3 287.74" style="opacity:0.1"></polygon><path d="M122.78,317.09s-25.14,14.08-28.3,15.83-5.22-3.33-5.24-6.41c-3.16,2-9.64,3.28-10-.75L77,296.48l42.58-24.59Z" style="fill:#455a64"></path><polygon points="119.59 271.89 77.01 296.48 77.01 288.59 119.59 264 119.59 271.89" style="fill:#37474f"></polygon><polygon points="80.61 327.91 92.27 333.06 88.64 323.56 80.61 327.91" style="fill:#37474f"></polygon><path d="M95,299c-.32,1.2-1,1.68-1.46.95a5.91,5.91,0,0,1-.28-2.48c0-2.06-.06-4.08-.06-6.14,0-.64-.55-.09-.56.47,0,1.84,0,3.72,0,5.56-.41-1.47-2.18.32-2.92,1.7s-1.79,4.71-.5,5.05c1.11.3,2.82-1.88,3.65-3.8a2,2,0,0,0,.42.92c.72.73,2.11-.82,2.12-2.42C95.38,298.43,95.05,298.69,95,299Zm-2.58.08a4.34,4.34,0,0,1-.28,1.29,7,7,0,0,1-1,1.75,3.19,3.19,0,0,1-.9.87.55.55,0,0,1-.8-.17,3,3,0,0,1,.1-2,6.12,6.12,0,0,1,1.53-2.76c.59-.47,1.09-.53,1.27.3A2.45,2.45,0,0,1,92.4,299.05Z" style="fill:#fafafa"></path><path d="M109.74,289.4c-.32,1.2-1,1.68-1.46,1a6.07,6.07,0,0,1-.29-2.48c0-2.06-.06-4.08-.06-6.14,0-.64-.55-.09-.55.47,0,1.84,0,3.72,0,5.56-.41-1.47-2.18.32-2.92,1.7s-1.79,4.71-.51,5.05c1.12.3,2.83-1.88,3.66-3.8a2,2,0,0,0,.42.92c.72.73,2.11-.82,2.12-2.42C110.13,288.86,109.81,289.12,109.74,289.4Zm-2.58.08a5.06,5.06,0,0,1-.28,1.29,6.73,6.73,0,0,1-1,1.75,3.16,3.16,0,0,1-.89.87.55.55,0,0,1-.8-.17,3,3,0,0,1,.09-2,6.13,6.13,0,0,1,1.54-2.76c.59-.47,1.08-.53,1.27.3A2.45,2.45,0,0,1,107.16,289.48Z" style="fill:#fafafa"></path><path d="M98.49,296.42c-.5.87-.77,1.82-1.49,2.31a1.47,1.47,0,0,1-.77.27c-.51,0-.51-.74-.49-1.48A3.12,3.12,0,0,0,97.19,296a4.74,4.74,0,0,0,.61-2.47c-.17-2.19-1.92.4-2.34,1.84a8.94,8.94,0,0,0-.28,1.77l-.08.07c-.13.13-.28.55-.07.51l.13,0c0,.31,0,.61,0,.9,0,.92.28,1.43.85,1.46a2.37,2.37,0,0,0,1.87-1.3,4.6,4.6,0,0,0,.94-2.37C98.8,296.18,98.6,296.24,98.49,296.42Zm-2.62-.6c.11-.51,1.12-2.95,1.4-1.76s-.72,2.06-1.51,2.66A4.8,4.8,0,0,1,95.87,295.82Z" style="fill:#fafafa"></path><path d="M104.27,294.05a1.17,1.17,0,0,1-.34-.29l0,0-.08.1c-.54.59-1,.56-1.14-.11a9.87,9.87,0,0,1-.15-2.61v-.32h0v-.13c0-.43-.3-.28-.47,0-.49-2.24-4.08,3.78-3.35,6.19.39,1.31,1.66.52,2.49-.48a5,5,0,0,0,.93-1.84,1.5,1.5,0,0,0,.56.95c.5.29,1.24-.52,1.66-1.45Zm-2.48-.48a5.43,5.43,0,0,1-1,2.14c-.3.39-1,.78-1.27.6a.8.8,0,0,1-.2-.67,5.23,5.23,0,0,1,.16-.92,9,9,0,0,1,.84-2.23c.37-.63,1.07-1.35,1.47-1S101.9,293,101.79,293.57Z" style="fill:#fafafa"></path><path d="M106.6,303.55c-.51.86-.78,1.82-1.49,2.3a1.49,1.49,0,0,1-.77.27c-.52,0-.52-.74-.5-1.47a3.2,3.2,0,0,0,1.46-1.5,4.94,4.94,0,0,0,.61-2.47c-.18-2.19-1.93.4-2.34,1.85a8.29,8.29,0,0,0-.29,1.76l-.07.07c-.14.13-.29.55-.08.51l.13,0q0,.46,0,.9c0,.92.27,1.43.84,1.47A2.43,2.43,0,0,0,106,305.9a4.47,4.47,0,0,0,.93-2.37C106.9,303.31,106.7,303.36,106.6,303.55Zm-2.63-.61c.12-.51,1.13-2.94,1.4-1.76s-.72,2.06-1.51,2.66A5.81,5.81,0,0,1,104,302.94Z" style="fill:#fafafa"></path><path d="M96.54,311.15s-.09,0-.13,0c-.2.19-.38.44-.58.64s-.43.32-.59.21-.21-.52-.23-.89c0-1.37,0-2.77,0-4.18,0-.68.05-1.36.1-2.05A6.46,6.46,0,0,0,95,303c0-.14-.26,0-.27.2a58.28,58.28,0,0,0-.31,8.68c0,.79.3,1.42.87,1.15.38-.17,1.34-1.09,1.27-1.82A.2.2,0,0,0,96.54,311.15Z" style="fill:#fafafa"></path><path d="M98.31,310.25c-.33.07-.48.24-.59-.21a6.59,6.59,0,0,1,0-1.61,18.06,18.06,0,0,0,.12-3c0-.23-.32.09-.35.29a22.75,22.75,0,0,0-.34,4.79c.07.92.84,1.28,1.26.07C98.43,310.44,98.42,310.23,98.31,310.25Z" style="fill:#fafafa"></path><path d="M98.36,302.06c-.1-.11-.34.09-.45.32a.88.88,0,0,0-.16.17,1.44,1.44,0,0,0-.21,1.07.09.09,0,0,0,.12.08,1.07,1.07,0,0,0,.67-.75C98.44,302.66,98.51,302.2,98.36,302.06Z" style="fill:#fafafa"></path><path d="M102.49,307.05c0-.95,0-1.9,0-2.85,0-.74.08-1.78-.49-1.73-1.13.1-1.71,2.47-2.08,4.52,0-.88-.06-1.77-.16-2.62,0-.31-.36.05-.38.34-.09,1.69,0,3.41.1,5,0,.47.42.06.5-.32.24-1.13.35-2.22.62-3.37a9.68,9.68,0,0,1,.52-1.82c.69-1.4.84-.35.84.45s0,1.44,0,2.16a6.17,6.17,0,0,0,.09,1.95c0,.1.12.16.21.12a.73.73,0,0,0,.26-.45,2.52,2.52,0,0,0,0-.54Z" style="fill:#fafafa"></path><path d="M107,316.55c-.07-.84-.07-1.5-.5-1.93s-.93-.05-1.44.08c.48-1,1.48-2.11,1.39-3.21-.1-1.26-2.13.59-2.66,1-.07,0-.14.12-.19.24s0,0,0,.05c-.06.18-.06.37,0,.36h0s0,0,0,0h0a8.53,8.53,0,0,0,1.34-.69c.12-.07.72-.6.8-.52s-.33,1-.35,1a11,11,0,0,0-1.11,2.22c0,.22,0,.53.11.54s.48-.19.68-.18c1.12.07,1.27.38,1.33,1.68a4.51,4.51,0,0,1-1.19,3.42c-.5.52-1,.64-1.38.38s-.26-.88.29-1.82c.16-.18.24-.68,0-.61a2.28,2.28,0,0,0-1.19,2.53c.36,1.57,1.62,1.35,2.66.08A6,6,0,0,0,107,316.55Z" style="fill:#fafafa"></path><path d="M102.23,322.74a.33.33,0,0,0-.15-.16c-.26-.16-.77.23-1,.36a17.88,17.88,0,0,1-2.3,1.37,18.6,18.6,0,0,1,.73-2.18c.46-1.12.92-2.21,1.33-3.36s1.22-2.92.64-3.83-1.71.31-2.09.77a5.35,5.35,0,0,0-.94,1.64,2.66,2.66,0,0,0-.29.7c0,.26.21.42.44.24a.76.76,0,0,0,.2-.27c.12-.21.23-.42.33-.64a5.12,5.12,0,0,1,.41-.85,4,4,0,0,1,.63-.67c.21-.2.58-.42.81-.13s.12.7.06,1a16.93,16.93,0,0,1-.91,2.59c-.39,1-.85,2-1.27,3a24.59,24.59,0,0,0-.75,2.48c-.12.35,0,.69.18.64a6.9,6.9,0,0,0,1.42-.69,22.45,22.45,0,0,1,2.07-1.18,1.19,1.19,0,0,0,.26-.11A.63.63,0,0,0,102.23,322.74Z" style="fill:#fafafa"></path></g><g id="freepik--Cabinet--inject-1--inject-27"><g id="freepik--cabinet--inject-1--inject-27"><polygon points="323.56 226.75 285.53 204.79 285.52 123.23 323.56 145.19 323.56 226.75" style="fill:#263238"></polygon><polygon points="323.56 172.44 285.52 181.59 285.53 204.79 323.56 226.75 323.56 172.44" style="opacity:0.25"></polygon><polygon points="323.56 145.19 377.89 113.82 377.89 195.38 323.56 226.75 323.56 145.19" style="fill:#37474f"></polygon><polygon points="377.89 113.82 323.56 145.19 285.52 123.23 339.86 91.86 377.89 113.82" style="fill:#455a64"></polygon><path d="M347,144.19l7.39-4.27c1-.56,1.74-.3,1.74.56a3.5,3.5,0,0,1-1.74,2.58L347,147.32c-1,.56-1.74.3-1.74-.56A3.47,3.47,0,0,1,347,144.19Z" style="fill:#263238"></path><polygon points="327.99 186.55 371.46 161.46 372.46 162.03 371.45 191.66 372.45 192.24 328.99 217.34 327.99 216.76 327.99 186.55" style="fill:#263238"></polygon><polygon points="328.99 187.13 372.46 162.03 372.45 192.24 328.99 217.34 328.99 187.13" style="fill:#455a64"></polygon><path d="M346,182.41l7.39-4.27c1-.55,1.74-.3,1.74.57a3.47,3.47,0,0,1-1.74,2.57L346,185.55c-1,.55-1.74.3-1.74-.57A3.48,3.48,0,0,1,346,182.41Z" style="fill:#263238"></path><polygon points="327.99 148.98 371.46 123.88 372.46 124.46 371.45 154.09 372.45 154.67 328.99 179.76 327.99 179.18 327.99 148.98" style="fill:#263238"></polygon><polygon points="328.99 149.55 372.46 124.46 372.45 154.67 328.99 179.76 328.99 149.55" style="fill:#455a64"></polygon><path d="M323.56,175l17.75-10.25a1.14,1.14,0,0,1,1.09-.1h0l-1.44-.85a2.89,2.89,0,0,0-1.16-.54.69.69,0,0,0-.24,0l-.08,0a4,4,0,0,0-.36.17l-15.56,9Z" style="opacity:0.25"></path><path d="M346,144.84l7.39-4.27c1-.56,1.74-.3,1.74.56a3.5,3.5,0,0,1-1.74,2.58L346,148c-1,.56-1.74.3-1.74-.56A3.47,3.47,0,0,1,346,144.84Z" style="fill:#263238"></path></g></g><g id="freepik--Folder--inject-1--inject-27"><path d="M357.92,219.53l-67.6,39-4.11,2.37-.19.1a2,2,0,0,1-.34.13,1.73,1.73,0,0,1-.43.12,1.47,1.47,0,0,1-.29.05h-.06l-.36,0a2.16,2.16,0,0,1-1.08-.24,4,4,0,0,1-1.54-2.44L270.53,199.5a2.69,2.69,0,0,1,0-.4,1.77,1.77,0,0,1,0-.32h0a2.57,2.57,0,0,1,.11-.48c.06-.16.13-.31.2-.46a2.61,2.61,0,0,1,.17-.28,3.25,3.25,0,0,1,.23-.29,1.65,1.65,0,0,1,.24-.22,2.61,2.61,0,0,1,.27-.19l71.7-41.4.19-.1.21-.09.09,0a.6.6,0,0,1,.26,0,3,3,0,0,1,1.27.6l1.59.93h0a1,1,0,0,1,.33.23,1.48,1.48,0,0,1,.29.49c0,.09,0,.17.06.25l11.39,59.18A2.67,2.67,0,0,1,357.92,219.53Z" style="fill:#5868FF"></path><path d="M357.92,219.53l-67.6,39-4.11,2.37-.19.1a2,2,0,0,1-.34.13,1.73,1.73,0,0,1-.43.12,1.47,1.47,0,0,1-.29.05h-.06l-.36,0a2.16,2.16,0,0,1-1.08-.24,4,4,0,0,1-1.54-2.44L270.53,199.5a2.69,2.69,0,0,1,0-.4,1.77,1.77,0,0,1,0-.32h0a2.57,2.57,0,0,1,.11-.48c.06-.16.13-.31.2-.46a2.61,2.61,0,0,1,.17-.28,3.25,3.25,0,0,1,.23-.29,1.65,1.65,0,0,1,.24-.22,2.61,2.61,0,0,1,.27-.19l71.7-41.4.19-.1.21-.09.09,0a.6.6,0,0,1,.26,0,3,3,0,0,1,1.27.6l1.59.93h0a1,1,0,0,1,.33.23,1.48,1.48,0,0,1,.29.49c0,.09,0,.17.06.25l11.39,59.18A2.67,2.67,0,0,1,357.92,219.53Z" style="fill:#5868FF"></path><path d="M286,261a3,3,0,0,1-2.56.09,4,4,0,0,1-1.54-2.44L270.53,199.5a2.6,2.6,0,0,1,.3-1.67l2.42,1.39a2.61,2.61,0,0,0-.31,1.67l11.39,59.18A1.18,1.18,0,0,0,286,261Z" style="opacity:0.45"></path><path d="M345.46,155.81l1.59.93h0a1.28,1.28,0,0,0-1.2.11l-71.7,41.4a2.35,2.35,0,0,0-.9,1l-2.42-1.39a2.61,2.61,0,0,1,.17-.28,3.25,3.25,0,0,1,.23-.29,2.24,2.24,0,0,1,.51-.41l71.7-41.4.4-.19.09,0a.6.6,0,0,1,.26,0A3,3,0,0,1,345.46,155.81Z" style="opacity:0.25"></path><path d="M284.33,260.07l-11.39-59.18a2.69,2.69,0,0,1,1.21-2.64l71.7-41.4a1.19,1.19,0,0,1,1.88.86l11.39,59.18a2.66,2.66,0,0,1-1.2,2.64l-71.71,41.4A1.19,1.19,0,0,1,284.33,260.07Z" style="fill:#5868FF"></path><path d="M284.33,260.07l-11.39-59.18a2.69,2.69,0,0,1,1.21-2.64l71.7-41.4a1.19,1.19,0,0,1,1.88.86l11.39,59.18a2.66,2.66,0,0,1-1.2,2.64l-71.71,41.4A1.19,1.19,0,0,1,284.33,260.07Z" style="opacity:0.35000000000000003"></path><path d="M288.41,246.56a2.21,2.21,0,0,1-1.84.07,2.89,2.89,0,0,1-1.11-1.77l-8.2-42.57a1.89,1.89,0,0,1,.22-1.2l1.74,1a1.89,1.89,0,0,0-.22,1.2l8.19,42.58A.85.85,0,0,0,288.41,246.56Z" style="fill:#e0e0e0"></path><path d="M345,162.87l1.15.67h0a.9.9,0,0,0-.86.08l-65.39,37.76a1.76,1.76,0,0,0-.65.7l-1.74-1,.12-.2.17-.21a1.7,1.7,0,0,1,.36-.29l65.39-37.77.28-.14.07,0,.19,0A2.51,2.51,0,0,1,345,162.87Z" style="fill:#fafafa"></path><path d="M287.19,245.87,279,203.29a1.91,1.91,0,0,1,.87-1.9l65.39-37.77a.86.86,0,0,1,1.35.62l8.19,42.58a1.91,1.91,0,0,1-.87,1.9l-65.39,37.77A.86.86,0,0,1,287.19,245.87Z" style="fill:#f5f5f5"></path><path d="M360.82,163.22a1.15,1.15,0,0,0-.45-1,.33.33,0,0,0-.11-.06l-2.32-1.36h0a1.13,1.13,0,0,0-1.13.11l-46.48,26.8L309,182.23a1.46,1.46,0,0,0-.67-.88h0l-2.42-1.4h0a1.42,1.42,0,0,0-1.47,0L284.65,191.4a3.55,3.55,0,0,0-1.61,2.78v65.94a1.13,1.13,0,0,0,.43,1h0l2.49,1.45h0a1.16,1.16,0,0,0,1.1-.14l72.18-41.67a3.54,3.54,0,0,0,1.6-2.78Z" style="fill:#5868FF"></path><path d="M308.27,181.32a1.44,1.44,0,0,0-1.44.07L287.06,192.8a3.47,3.47,0,0,0-1.14,1.2l-2.41-1.4a3.15,3.15,0,0,1,1.14-1.2L304.42,180a1.44,1.44,0,0,1,1.47,0h0Z" style="opacity:0.1"></path><path d="M360.26,162.14a1.19,1.19,0,0,0-1.05.15l-46.52,26.84a1.41,1.41,0,0,1-2.15-.85l-.22-.59,46.48-26.8a1.4,1.4,0,0,1,.71-.21.82.82,0,0,1,.42.1h0Z" style="opacity:0.1"></path><path d="M360.81,163.22l0,54.77a3.53,3.53,0,0,1-1.61,2.78l-72.36,41.78a.94.94,0,0,1-1.42-.82V195.59a3.21,3.21,0,0,1,.47-1.58,3.28,3.28,0,0,1,1.13-1.2l19.77-11.42a1.46,1.46,0,0,1,1.45-.07l0,0h0a1.52,1.52,0,0,1,.67.89l1.35,5.45.22.59a1.4,1.4,0,0,0,2.14.86l46.53-26.84a1.19,1.19,0,0,1,1.05-.16l.06,0,0,0h0A1.15,1.15,0,0,1,360.81,163.22Z" style="fill:#5868FF"></path><path d="M360.81,163.22l0,54.77a3.53,3.53,0,0,1-1.61,2.78l-72.36,41.78a.94.94,0,0,1-1.42-.82V195.59a3.21,3.21,0,0,1,.47-1.58,3.28,3.28,0,0,1,1.13-1.2l19.77-11.42a1.46,1.46,0,0,1,1.45-.07l0,0h0a1.52,1.52,0,0,1,.67.89l1.35,5.45.22.59a1.4,1.4,0,0,0,2.14.86l46.53-26.84a1.19,1.19,0,0,1,1.05-.16l.06,0,0,0h0A1.15,1.15,0,0,1,360.81,163.22Z" style="opacity:0.2"></path><path d="M286,262.6l-.07,0-2.49-1.44a1.19,1.19,0,0,1-.43-1V194.18a3.24,3.24,0,0,1,.47-1.58l2.41,1.4h0a3.27,3.27,0,0,0-.47,1.58v66.14A.93.93,0,0,0,286,262.6Z" style="opacity:0.45"></path></g><g id="freepik--Marker--inject-1--inject-27"><path d="M230,312.29a14,14,0,0,0-6.33-11c-1.73-1-3.29-1.1-4.44-.46h0l0,0h0l-63.5,36.68,9,15.49,63.46-36.66h0C229.33,315.73,230,314.31,230,312.29Z" style="fill:#f0f0f0"></path><path d="M228.18,306.05a12.94,12.94,0,0,0-4.48-4.73c-1.73-1-3.29-1.1-4.44-.46h0l0,0h0l-63.5,36.68,4.5,7.74,68-39.24Z" style="fill:#f5f5f5"></path><path d="M158.5,342.34l67.64-39a11.17,11.17,0,0,0-2.44-2c-.18-.1-.35-.19-.53-.27l-66.39,38.33Z" style="fill:#fafafa"></path><path d="M160.22,338a14,14,0,0,1,6.33,11c0,4-2.83,5.68-6.33,3.66a14,14,0,0,1-6.33-11C153.89,337.61,156.72,336,160.22,338Z" style="fill:#e0e0e0"></path><path d="M223.12,319.31c1.15-.66,1.85-2.08,1.85-4.1a14,14,0,0,0-6.33-11c-1.73-1-3.29-1.1-4.43-.46l1.8-1c1.14-.63,2.7-.53,4.43.47a14,14,0,0,1,6.34,11c0,2-.71,3.43-1.85,4.09Z" style="fill:#e0e0e0"></path><path d="M167.07,349.26a15.13,15.13,0,0,0-6.85-11.86c-1.89-1.09-3.6-1.2-4.84-.48l-24,13.86,9.77,16.72,23.92-13.81C166.3,353,167.07,351.44,167.07,349.26Z" style="fill:#5868FF"></path><path d="M163,339.73l-24,13.83a12,12,0,0,0-2.82-2.32l24-13.85A12.28,12.28,0,0,1,163,339.73Z" style="fill:#fff;opacity:0.30000000000000004"></path><path d="M167.07,349.26c0,2.19-.77,3.72-2,4.44l-23.91,13.81h0c1.21-.72,2-2.25,2-4.4a13.1,13.1,0,0,0-1.22-5.22l24-13.84A13.12,13.12,0,0,1,167.07,349.26Z" style="opacity:0.05"></path><path d="M136.25,351.24a15.13,15.13,0,0,1,6.85,11.86c0,4.36-3.07,6.13-6.85,3.95a15.13,15.13,0,0,1-6.85-11.86C129.4,350.82,132.47,349.05,136.25,351.24Z" style="fill:#5868FF"></path><path d="M136.25,351.24a15.13,15.13,0,0,1,6.85,11.86c0,4.36-3.07,6.13-6.85,3.95a15.13,15.13,0,0,1-6.85-11.86C129.4,350.82,132.47,349.05,136.25,351.24Z" style="opacity:0.1"></path><path d="M136.25,354c-2.44-1.4-4.42-.26-4.42,2.56a9.74,9.74,0,0,0,4.42,7.64c2.44,1.41,4.42.26,4.42-2.55A9.76,9.76,0,0,0,136.25,354Zm0,8.67a6.84,6.84,0,0,1-3.09-5.35c0-2,1.39-2.77,3.09-1.78a6.81,6.81,0,0,1,3.09,5.35C139.34,362.9,138,363.69,136.25,362.71Z" style="opacity:0.2"></path><polygon points="148.24 356.18 146.52 357.17 148.24 358.15 149.95 357.17 148.24 356.18" style="fill:#5868FF"></polygon><path d="M169.86,348.4l-1.72-1a1.54,1.54,0,0,0-1.54.14h0l-18.36,10.59v5.94l18.36-10.6a4.85,4.85,0,0,0,2.19-3.79v-.22l.2.12Z" style="fill:#5868FF"></path><path d="M170.49,349.81v.88a4.85,4.85,0,0,1-2.19,3.79L150,365.08v-5.94l18.35-10.59h0C169.52,347.86,170.49,348.42,170.49,349.81Z" style="fill:#5868FF"></path><path d="M170.49,349.81v.88a4.85,4.85,0,0,1-2.19,3.79L150,365.08v-5.94l18.35-10.59h0C169.52,347.86,170.49,348.42,170.49,349.81Z" style="opacity:0.05"></path><polygon points="146.52 363.1 146.52 357.17 149.94 359.14 149.95 365.08 146.52 363.1" style="fill:#5868FF"></polygon><polygon points="146.52 363.1 146.52 357.17 149.94 359.14 149.95 365.08 146.52 363.1" style="opacity:0.1"></polygon></g><g id="freepik--character-2--inject-1--inject-27"><g id="freepik--character-boy--inject-1--inject-27"><path d="M382.2,261.43c-1,1-3.26,1.8-18.12,2.88a14.17,14.17,0,0,1-6.38-.84,10.77,10.77,0,0,1-4.95-3.94,3.8,3.8,0,0,1-.62-1.3,1.85,1.85,0,0,1,.19-1.4,2,2,0,0,1,1.19-.76,4.3,4.3,0,0,1,2.78.3c1.38.53,2.43.72,2.32.44s-.93-.53-1.78-1.5-1.07-2.3-.52-2.72.46-.32,1.44.49a32.66,32.66,0,0,1,3.41,2.49,7.71,7.71,0,0,0,3,2.09c1.49.59,2.9.41,7-.25,3.57-.57,5-.77,6.66-1.73,1.85-2.81,6.3-14.66,8.24-17.91,2-3.44,6.2-3.54,6.2-3.54a40,40,0,0,1-2.1,12.45A87.94,87.94,0,0,1,382.2,261.43Z" style="fill:#b16668"></path><path d="M393.43,233.88a7.58,7.58,0,0,0-5,.88c-2.25,1.41-3.72,4-5.15,7.32-1.74,4-3.84,9.32-3.84,9.32a12.2,12.2,0,0,0,7.49,3.4l6.71-11.15Z" style="fill:#5868FF"></path><g id="freepik--character-boy--inject-1--inject-27"><rect x="403.5" y="351.85" width="5.79" height="9.91" style="fill:#b16668"></rect><polygon points="393.27 354.35 387.49 354.55 387.2 344.06 393.27 343.86 393.27 354.35" style="fill:#b16668"></polygon><path d="M411.76,277.86c0,5.52-1,37.68-1,37.68.13,1.59,1.66,4.42,1.78,10.15.18,8.3-3,31.12-3,31.12a7.62,7.62,0,0,1-6.45.12s-2.62-30.92-3.66-39.14c-.91-7.18-2.44-26.68-2.44-26.68l-2.73,23.43a32.84,32.84,0,0,1,.72,9.2c-.27,3.8-1.34,27.36-1.34,27.36a7.91,7.91,0,0,1-6.69.51s-4.08-33.58-4.14-37.07c-.08-4,1.51-44.6,1.51-44.6Z" style="fill:#5868FF"></path><path d="M411.76,277.86c0,5.52-1,37.68-1,37.68.13,1.59,1.66,4.42,1.78,10.15.18,8.3-3,31.12-3,31.12a7.62,7.62,0,0,1-6.45.12s-2.62-30.92-3.66-39.14c-.91-7.18-2.44-26.68-2.44-26.68l-2.73,23.43a32.84,32.84,0,0,1,.72,9.2c-.27,3.8-1.34,27.36-1.34,27.36a7.91,7.91,0,0,1-6.69.51s-4.08-33.58-4.14-37.07c-.08-4,1.51-44.6,1.51-44.6Z" style="opacity:0.5"></path><path d="M408,237.19a5.3,5.3,0,0,1,2.79,2.91,13.43,13.43,0,0,1,.85,5v11.34l.17,21.42a25.87,25.87,0,0,1-27.74-1.8s.5-27.57.5-32.08c0-.2,0-.41,0-.62a10.28,10.28,0,0,1,12.91-9.25l5.25,1.35,5.26,1.73Z" style="fill:#263238"></path><circle cx="393.09" cy="216.1" r="7.96" transform="translate(-52.77 166.88) rotate(-22.5)" style="fill:#5868FF"></circle><circle cx="393.09" cy="216.1" r="7.96" transform="translate(-52.77 166.88) rotate(-22.5)" style="opacity:0.5"></circle><path d="M406.84,221.75a70.74,70.74,0,0,1-1.8,7.06,2.75,2.75,0,0,1-1.59,1.27l.09-4.26Z" style="fill:#5868FF"></path><path d="M406.84,221.75a70.74,70.74,0,0,1-1.8,7.06,2.75,2.75,0,0,1-1.59,1.27l.09-4.26Z" style="opacity:0.5"></path><path d="M405.22,213.08a3,3,0,0,1,2.47.87c1.07,1.08.47,4.48-.85,7.8l-2.43.28Z" style="fill:#5868FF"></path><path d="M405.22,213.08a3,3,0,0,1,2.47.87c1.07,1.08.47,4.48-.85,7.8l-2.43.28Z" style="opacity:0.5"></path><path d="M403.68,222c.49.29,1.19-.64,1.79-1.27a2.11,2.11,0,0,1,3.54.58c1,2.09-.87,4.87-2.41,5.35-2.66.84-3.06-.87-3.06-.87l-.2,9.89h0c-3.3,4.24-12.48,3.88-8.66-.55v-2.92a16.73,16.73,0,0,1-3.58.19c-2-.31-3.19-1.85-3.78-4-1-3.4-1.32-6.14-.51-12.83.89-7.33,9.41-7.41,14-4.51S403.68,222,403.68,222Z" style="fill:#b16668"></path><path d="M403.68,222.85c.25,0,1.18-1.54,1.79-2.09.84-.76-.25-7.68-.25-7.68a3.27,3.27,0,0,0-.81-3.5c-1.15-1.27-2.4-2.07-5.72-2.25a67.22,67.22,0,0,0-6.79.32c-3.28.22-4.49-.58-6.37-1.11-1.44-.4-1.6,4.79,2,6.52a11.18,11.18,0,0,0,4.29,1.14,45.13,45.13,0,0,0,8.64-.17c.9-.12,1.09.76,1.58,3.15C402.51,219.28,402.86,222.84,403.68,222.85Z" style="fill:#5868FF"></path><path d="M403.68,222.85c.25,0,1.18-1.54,1.79-2.09.84-.76-.25-7.68-.25-7.68a3.27,3.27,0,0,0-.81-3.5c-1.15-1.27-2.4-2.07-5.72-2.25a67.22,67.22,0,0,0-6.79.32c-3.28.22-4.49-.58-6.37-1.11-1.44-.4-1.6,4.79,2,6.52a11.18,11.18,0,0,0,4.29,1.14,45.13,45.13,0,0,0,8.64-.17c.9-.12,1.09.76,1.58,3.15C402.51,219.28,402.86,222.84,403.68,222.85Z" style="opacity:0.5"></path><path d="M405.22,213.62l2.94-1.59a1.62,1.62,0,0,0-2.23-.73A1.75,1.75,0,0,0,405.22,213.62Z" style="fill:#5868FF"></path><path d="M405.22,213.62l2.94-1.59a1.62,1.62,0,0,0-2.23-.73A1.75,1.75,0,0,0,405.22,213.62Z" style="opacity:0.5"></path><path d="M394.69,232.24a33.42,33.42,0,0,0,5.89-1.69,4.89,4.89,0,0,0,2.11-2.09,6.85,6.85,0,0,1-1.19,2.47c-1.12,1.42-6.81,2.47-6.81,2.47Z" style="fill:#9a4a4d"></path><path d="M394.9,220.94a.88.88,0,1,0,.88-.91A.9.9,0,0,0,394.9,220.94Z" style="fill:#263238"></path><path d="M395.83,217.64l1.87,1a1.11,1.11,0,0,0-.43-1.49A1.05,1.05,0,0,0,395.83,217.64Z" style="fill:#263238"></path><path d="M395.09,227l-2,.75a1.06,1.06,0,0,0,1.36.66A1.13,1.13,0,0,0,395.09,227Z" style="fill:#9a4a4d"></path><path d="M387.36,218.37l1.7-1.32a1,1,0,0,0-1.48-.22A1.13,1.13,0,0,0,387.36,218.37Z" style="fill:#263238"></path><path d="M387.88,220.69a.88.88,0,1,0,.88-.91A.89.89,0,0,0,387.88,220.69Z" style="fill:#263238"></path><polygon points="392.34 219.86 392.05 225.13 389.31 224.19 392.34 219.86" style="fill:#9a4a4d"></polygon><path d="M403.5,358.9v-.82c-.55.24-1.84,5.15-4.14,7.24-1.82,1.67-4.31,3.59-4.95,5.45s3.47,3,5.18,2.69c2-.35,5.42-1.74,6.28-3s1.26-3.2,2-4.15,2.31-2,2.69-3.1a7,7,0,0,0-.33-3c-.27-1-.56-2.15-.91-2.05v.63a4.6,4.6,0,0,1-2.89,1C405.55,359.72,403.49,359.55,403.5,358.9Z" style="fill:#263238"></path><path d="M387.43,352.76c-.3,0-.55.44-1.21,1.15a12.34,12.34,0,0,1-3.41,2.45c-2.17,1.09-6.38,2.76-8.29,3.62-1.19.53-1.13,2,.1,2.79s4.2,1.41,7.77.61c1.95-.43,4.48-2.23,6.08-2.13s4.61.07,5.79-.74.71-2.56.37-4.06-.82-4.18-1.36-4.07V353c-.69,1.05-4.28,1.48-5.81.7Z" style="fill:#263238"></path><path d="M397,291.11a21.37,21.37,0,0,1-8.06-4.62s1.55,2.91,6.18,5.62l-.62,20.46Z" style="opacity:0.15"></path></g></g><path d="M421.18,266c-3.71-21.73-7.51-28.33-13.73-28.56-1.92,2.08-1.75,8.65.92,12.77,0,0,5.72,13.81,6.51,18.65.68,4.26,1.44,9.61,1.19,13.23a2.63,2.63,0,0,1-.79,1.68c-1.23,1.21-1.29,2.23-2.12,3.59-.64,1.07-1.31,1.45-1.14,1.7a1.41,1.41,0,0,0,1.91.24,7.26,7.26,0,0,0,1.53-1.32,14.54,14.54,0,0,1-1.35,3.82c-1.46,2.89-1.21,4.42,2.83,3.56,2.54-.53,4.21-2.54,4.89-8.54a46.6,46.6,0,0,0,.39-6.65A130.6,130.6,0,0,0,421.18,266Z" style="fill:#b16668"></path><path d="M405.93,236.53c1.89.34,6.75.51,9.24,5.53a96.86,96.86,0,0,1,5,14.68,11.82,11.82,0,0,1-9,3.23l-3-8.68C405.34,247.6,404.63,239.3,405.93,236.53Z" style="fill:#5868FF"></path></g><g id="freepik--character-1--inject-1--inject-27"><path d="M321.17,286.54c2.33.13,3.46,1.68,5.83,7.54s6.48,15.88,5.71,18.06c-.54,1.52-15.29,6.3-15.29,6.3l-3.73-4.95,11.12-5L319,295.64Z" style="fill:#ffc1a7"></path><polygon points="291.55 305.46 276.39 306.52 275.88 307.21 288.87 332.79 303.29 330.39 291.55 305.46" style="fill:#5868FF"></polygon><polygon points="291.55 305.46 276.39 306.52 275.88 307.21 288.87 332.79 303.29 330.39 291.55 305.46" style="opacity:0.30000000000000004"></polygon><polygon points="292.07 304.77 276.39 306.52 289.39 332.1 303.81 329.7 292.07 304.77" style="fill:#5868FF"></polygon><polygon points="291.97 307.2 278.82 308.67 289.66 329.6 301.76 327.58 291.97 307.2" style="fill:#f5f5f5"></polygon><path d="M289.39,308.24l-.54-1.05c-.3-.58-1.52-.95-2.73-.83l-2.33.24c-1.21.13-2,.7-1.65,1.28l.54,1.05Z" style="opacity:0.15"></path><path d="M288.14,304.5a1.26,1.26,0,0,0-1.24-.53l-.9.12s-1.17-2.27-3.3-2.2-1,2.61-1,2.61l-1,.14c-.53.08-.82.44-.66.79l.29.64,8.07-.9Z" style="fill:#37474f"></path><path d="M287.45,305.27c-.76.05-1.05.12-.59,1s1,1.79,1,1.79l-3.57.4s-.65-1.29-.91-1.79a1.22,1.22,0,0,0-1.2-.81l-.34-.43,5.66-.54Z" style="fill:#263238"></path><path d="M289.58,308.38l-.54-1.05c-.29-.58-1.52-.95-2.73-.83l-2.32.24c-1.21.13-1.95.7-1.65,1.28l.54,1.05Z" style="fill:#37474f"></path><path d="M297.26,317.07s.41-2.33-.29-3.13-3.56-.69-5-1.31-1.3,1.06-.56,1.61C293.05,315.43,296.27,316,297.26,317.07Z" style="fill:#f2a38f"></path><g id="freepik--Character--inject-1--inject-27"><path d="M306.08,413.33a30,30,0,0,1,.81,3c.23,1.11.55,3,.16,3.81s-1.91,1.38-4.26,1.36c-1.53,0-3.91,1-5.54,1.93a14.6,14.6,0,0,1-7,1.11c-2.1-.25-4.27-1.47-4.61-2.33s-.63-2.06,5.05-3.88c0,0,6.87-2.24,9.27-4.88Z" style="fill:#263238"></path><path d="M306.08,413.48l-1.08-.13-5,.1c-2.4,2.64-9.22,4.86-9.27,4.88l-.91.3c-1,.8-.15,2.15,2.2,2.36s9.64-2.25,11.26-3A4.82,4.82,0,0,0,306.08,413.48Z" style="fill:#ffc1a7"></path><path d="M306.08,411.33s0,1.37,0,2.15-.92,1.95-3.3,1.86c-1.68-.06-2.85-.51-2.78-1.89v-2Z" style="fill:#ffc1a7"></path><path d="M322.11,404.35c.43.17.52,1,.54,2.65,0,1.24.23,3.42-1.24,3.82s-3.6.11-4.5-1.09c-1.13-1.49-1.88-2.8-3.5-4.63-1.4-1.59-2.92-3.08-3.44-5.27-.48-2,0-2.81,1.34-3.35s2.58-.09,4.45,1.47a9.18,9.18,0,0,0,1.67.88C318.66,399.21,321.68,404.17,322.11,404.35Z" style="fill:#263238"></path><path d="M322.16,402.82l-.06,2s-1.35,2.64-5.1,0c-.09-.19-.42-4.1-.42-4.1Z" style="fill:#ffc1a7"></path><path d="M317.43,398.83a9.18,9.18,0,0,1-1.67-.88h0c-1.51-.48-4.7.08-3.26,2.28a16.88,16.88,0,0,0,4.5,4.61c1.69.84,2.29-.2,2.29-.2l-.6-4.73A3.75,3.75,0,0,0,317.43,398.83Z" style="fill:#ffc1a7"></path><path d="M324.9,374.89a47.67,47.67,0,0,0-2.19-10.44S324,355.53,325,347c2.35-20.07.79-20.39-2.05-27.37,0,0-25.73-3.31-26.81,7.39-1.34,13.33-.73,39.17-.51,43.89s.61,6.87,2,16.77c1.06,7.54,2.08,24,2.08,24a6.5,6.5,0,0,0,6.62-.34s3.22-20.26,3.15-25.71a46.24,46.24,0,0,0-1.75-11.93s2.19-21.72,2.75-25.17c0,0,.62,6.92.85,11.65s1.5,9.27,2.63,18.07c1,7.63,2.61,23.57,2.61,23.57,3.37,1.94,5.73,1.06,5.73,1.06S325.64,381.51,324.9,374.89Z" style="fill:#5868FF"></path><path d="M310.48,348.52l1.4-9a19.58,19.58,0,0,0,7.95-2.77s-1.75,2.64-6.38,3.74L312,350.91l-.58,10.87Z" style="opacity:0.1"></path><polygon points="306.56 281.52 307.51 291.52 316.29 290.96 315.59 279.87 306.56 281.52" style="fill:#ffc1a7"></polygon><path d="M324.19,290.1c-.89-2.65-2.71-4.2-6.73-4.25l-1.49,0c-.28,1.48-4.61,2.67-8.88,1.16-.61.16-2.26.46-3.19.59l-2,.3c-3.11,1-4.49,6.42-4.79,15s-1.58,26.91-1.58,26.91,6.7,3.59,17.27,2.2a21.11,21.11,0,0,0,12.81-6.12,65.67,65.67,0,0,0-4.89-13.74C325.65,300,325.51,294,324.19,290.1Z" style="fill:#455a64"></path><path d="M307.51,332.36a36.21,36.21,0,0,0,5.24-.31c8.62-1.13,12.44-5.88,12.8-6.17a66.11,66.11,0,0,0-4.88-13.69,56.07,56.07,0,0,0,4.14-14.27c-.41,2.57-4.2,12.5-9.16,15.48a8.81,8.81,0,0,1,5.19,3.72C323.23,320.4,321.27,331.66,307.51,332.36Z" style="fill:#37474f"></path><path d="M302,269.1s-3.32-4-.72-7.81c3.07-4.55,8.47-6.08,15.15-4.1,3.31,1,8.16,5.55,8.4,12,.19,4.93-13.65,8.2-13.43,11.58Z" style="fill:#263238"></path><path d="M300.05,270.54s-1.95,2.94-1.7,3.26a4.71,4.71,0,0,0,1.49.64Z" style="fill:#f2a38f"></path><path d="M306,261.22c-1.89,1-5.16,2.79-6,9.75-.86,7.16.73,9.64,1.71,10.58.65.63,4.05.86,5.82.31,2.22-.69,7-3.06,9.27-6.75,2.65-4.35,3.2-10.13.14-12.4A11.41,11.41,0,0,0,306,261.22Z" style="fill:#ffc1a7"></path><path d="M305.43,261.52s-1.65,6.53.33,10.65c0,0,1.16-2.55,3.35-1.82s2,3.68.26,5.18a3.27,3.27,0,0,1-3.41.72s.06,3.61,3.14,5c0,0,6.46,3.09,12.29-3.14,5.29-5.66,4.6-15.79-3.19-18.38S305.43,261.52,305.43,261.52Z" style="fill:#263238"></path><path d="M332.37,266.86l-.08.09a.82.82,0,0,1-.18.19c-.15.12-.24,0-.4,0l-1.25-.51-1.77-.75c-.65-.28-1.34-.57-2-.88-.21-.09.05-.76.27-.68.71.25,1.41.52,2.07.76l1.79.7,1.26.5c.15.07.3.05.32.24a1.22,1.22,0,0,1,0,.27Z" style="fill:#5868FF"></path><path d="M332.36,258.51v.12a1.15,1.15,0,0,1,0,.26c0,.19-.16.18-.31.25l-1.26.52-1.78.72c-.65.25-1.35.54-2,.8-.21.07-.5-.58-.29-.69.68-.32,1.37-.62,2-.91s1.24-.54,1.76-.76l1.25-.54c.15,0,.25-.16.39,0a1.14,1.14,0,0,1,.19.19Z" style="fill:#5868FF"></path><path d="M329.14,261.83a6.87,6.87,0,1,1-6.87-6.86A6.86,6.86,0,0,1,329.14,261.83Z" style="fill:#263238"></path><path d="M300.41,258.59c-2.9,3-3.07,11.48,5.35,13.58l5.51-15.1C308.06,255,303,256,300.41,258.59Z" style="fill:#263238"></path><path d="M304.91,274.51a1.66,1.66,0,1,1,1.13-3.13Z" style="fill:#263238"></path><path d="M313.61,258.51v.12a.76.76,0,0,0,0,.26c0,.19.16.18.31.25l1.25.52,1.78.72c.66.25,1.35.54,2.06.8.21.07.5-.58.28-.69-.68-.32-1.36-.62-2-.91s-1.25-.54-1.76-.76l-1.25-.54c-.16,0-.25-.16-.4,0a1.09,1.09,0,0,0-.18.19Z" style="fill:#5868FF"></path><path d="M313.61,266.86l.07.09a.69.69,0,0,0,.19.19c.14.12.23,0,.39,0l1.26-.51,1.77-.75,2-.88c.2-.09-.06-.76-.28-.68-.71.25-1.41.52-2.06.76l-1.8.7-1.26.5c-.15.07-.29.05-.31.24a.81.81,0,0,0,0,.27Z" style="fill:#5868FF"></path><path d="M302.5,287.85s-1.38-.19-6.54,1.19-17.31,4.16-17.31,4.16-14.28-6.87-14.9-7.62-.27-2.26-.1-3.1.45-2.68.64-3.2c.33-.91-1-.67-1.81.18s-1.14,2.51-1.54,2.8-3.4-3.18-4.86-4.84-2.14-2.84-3.11-2.15c-.71.5-.26,1.49.79,2.92a18,18,0,0,1,1.35,1.89c.12.25-.26.46-.42.6s-.78.66-.82,1.06a3.55,3.55,0,0,1,0,.65c-.13.47-.72.69-.89,1.16s0,.71-.05,1.07-.17.43-.21.65a1.59,1.59,0,0,0,.47,1.23c1,1.22,2.42,1.69,3.76,2.43,1.12.62,2.27.89,3.56,1.46s16.17,11.18,18.85,10.94c3-.26,21.5-3.57,21.5-3.57C305.67,294.46,302.5,287.85,302.5,287.85Z" style="fill:#ffc1a7"></path></g></g></svg>