<svg xmlns="http://www.w3.org/2000/svg" viewBox="0 0 500 500"><g id="freepik--background-complete--inject-103"><rect y="382.4" width="500" height="0.25" style="fill:#ebebeb"></rect><rect x="416.78" y="398.49" width="33.12" height="0.25" style="fill:#ebebeb"></rect><rect x="322.53" y="401.21" width="8.69" height="0.25" style="fill:#ebebeb"></rect><rect x="396.59" y="389.21" width="19.19" height="0.25" style="fill:#ebebeb"></rect><rect x="52.46" y="390.89" width="43.19" height="0.25" style="fill:#ebebeb"></rect><rect x="104.56" y="390.89" width="6.33" height="0.25" style="fill:#ebebeb"></rect><rect x="131.47" y="395.11" width="93.68" height="0.25" style="fill:#ebebeb"></rect><path d="M237,337.8H43.91a5.71,5.71,0,0,1-5.7-5.71V60.66A5.71,5.71,0,0,1,43.91,55H237a5.71,5.71,0,0,1,5.71,5.71V332.09A5.71,5.71,0,0,1,237,337.8ZM43.91,55.2a5.46,5.46,0,0,0-5.45,5.46V332.09a5.46,5.46,0,0,0,5.45,5.46H237a5.47,5.47,0,0,0,5.46-5.46V60.66A5.47,5.47,0,0,0,237,55.2Z" style="fill:#ebebeb"></path><path d="M453.31,337.8H260.21a5.72,5.72,0,0,1-5.71-5.71V60.66A5.72,5.72,0,0,1,260.21,55h193.1A5.71,5.71,0,0,1,459,60.66V332.09A5.71,5.71,0,0,1,453.31,337.8ZM260.21,55.2a5.47,5.47,0,0,0-5.46,5.46V332.09a5.47,5.47,0,0,0,5.46,5.46h193.1a5.47,5.47,0,0,0,5.46-5.46V60.66a5.47,5.47,0,0,0-5.46-5.46Z" style="fill:#ebebeb"></path><path d="M104.07,146.31s-1.18-7.72,4.46-12.68,5.14-7.9,3.53-8.28-3.1,4.57-5.57,5.93c0,0-.08-7.06,2.43-9.66s3.84-9.3,1.45-9.42-2.65,4-3.14,6.88-3.16,7-3.16,7-.53-6.32-2.15-8.92,2.71-8.55,1-11.15-4.65,2.36-4.4,7.93,4,11.52,3.09,17.34c0,0-1.63-4.09-3.11-4.46s-3-3.07-3.94-4.08-2.23,2.47,0,5.69,7.92,11.83,7.05,18.8Z" style="fill:#e6e6e6"></path><path d="M107.43,142.8l1.85,11.58a5.89,5.89,0,0,1-5.82,6.81h-2a5.89,5.89,0,0,1-5.82-6.81l1.85-11.58Z" style="fill:#e6e6e6"></path><rect x="218.21" y="134.21" width="5.75" height="24.7" transform="translate(442.17 293.13) rotate(180)" style="fill:#ebebeb"></rect><rect x="190.42" y="134.21" width="5.75" height="24.7" transform="translate(386.6 293.13) rotate(180)" style="fill:#ebebeb"></rect><rect x="156.74" y="133.91" width="5.75" height="24.7" transform="translate(292.07 317.5) rotate(-170.22)" style="fill:#ebebeb"></rect><rect x="211.09" y="137.47" width="5.75" height="21.45" transform="translate(427.93 296.39) rotate(180)" style="fill:#ebebeb"></rect><rect x="197.88" y="137.47" width="5.75" height="21.45" transform="translate(401.51 296.39) rotate(180)" style="fill:#ebebeb"></rect><rect x="164.54" y="137.47" width="5.75" height="21.45" transform="translate(334.83 296.39) rotate(180)" style="fill:#ebebeb"></rect><rect x="180.48" y="137.1" width="5.75" height="21.45" transform="translate(330.28 331.9) rotate(-167.47)" style="fill:#ebebeb"></rect><rect x="206.12" y="132.99" width="2.87" height="25.93" transform="translate(415.12 291.9) rotate(180)" style="fill:#ebebeb"></rect><rect x="171.94" y="132.99" width="2.87" height="25.93" transform="translate(346.76 291.9) rotate(180)" style="fill:#ebebeb"></rect><rect x="123.45" y="139.31" width="28" height="19.33" style="fill:#ebebeb"></rect><rect x="224.03" y="147.23" width="23.46" height="14.43" style="fill:#ebebeb"></rect><rect x="230.28" y="134.54" width="11.73" height="14.43" style="fill:#ebebeb"></rect><rect x="102.16" y="157.31" width="150.21" height="220.23" style="fill:#f0f0f0"></rect><rect x="107.47" y="164.25" width="139.59" height="40.67" style="fill:#e0e0e0"></rect><rect x="107.47" y="170.83" width="7.93" height="34.09" style="fill:#ebebeb"></rect><rect x="145.81" y="170.83" width="7.93" height="34.09" style="fill:#ebebeb"></rect><rect x="192.29" y="170.4" width="7.93" height="34.09" transform="translate(-28.99 36.06) rotate(-9.78)" style="fill:#ebebeb"></rect><rect x="117.29" y="175.32" width="7.93" height="29.6" style="fill:#ebebeb"></rect><rect x="135.52" y="175.32" width="7.93" height="29.6" style="fill:#ebebeb"></rect><rect x="181.52" y="175.32" width="7.93" height="29.6" style="fill:#ebebeb"></rect><rect x="159.53" y="174.82" width="7.93" height="29.6" transform="translate(-37.24 39.98) rotate(-12.53)" style="fill:#ebebeb"></rect><rect x="128.11" y="169.14" width="3.96" height="35.78" style="fill:#ebebeb"></rect><rect x="175.28" y="169.14" width="3.96" height="35.78" style="fill:#ebebeb"></rect><rect x="107.47" y="211.36" width="139.59" height="40.67" transform="translate(354.52 463.39) rotate(180)" style="fill:#e0e0e0"></rect><rect x="239.13" y="217.94" width="7.93" height="34.09" transform="translate(486.18 469.98) rotate(180)" style="fill:#ebebeb"></rect><rect x="200.78" y="217.94" width="7.93" height="34.09" transform="translate(409.5 469.98) rotate(180)" style="fill:#ebebeb"></rect><rect x="154.3" y="217.52" width="7.93" height="34.09" transform="translate(274.4 492.6) rotate(-170.22)" style="fill:#ebebeb"></rect><rect x="229.3" y="222.44" width="7.93" height="29.6" transform="translate(466.53 474.47) rotate(180)" style="fill:#ebebeb"></rect><rect x="211.08" y="222.44" width="7.93" height="29.6" transform="translate(430.08 474.47) rotate(180)" style="fill:#ebebeb"></rect><rect x="165.07" y="222.44" width="7.93" height="29.6" transform="translate(338.07 474.47) rotate(180)" style="fill:#ebebeb"></rect><rect x="187.06" y="221.93" width="7.93" height="29.6" transform="translate(326.17 509.25) rotate(-167.47)" style="fill:#ebebeb"></rect><rect x="222.44" y="216.25" width="3.96" height="35.78" transform="translate(448.85 468.29) rotate(180)" style="fill:#ebebeb"></rect><rect x="175.28" y="216.25" width="3.96" height="35.78" transform="translate(354.52 468.29) rotate(180)" style="fill:#ebebeb"></rect><rect x="107.47" y="217.94" width="7.93" height="34.09" style="fill:#ebebeb"></rect><rect x="117.29" y="222.44" width="7.93" height="29.6" style="fill:#ebebeb"></rect><rect x="135.52" y="222.44" width="7.93" height="29.6" style="fill:#ebebeb"></rect><rect x="128.11" y="216.25" width="3.96" height="35.78" style="fill:#ebebeb"></rect><rect x="107.47" y="258.47" width="139.59" height="40.67" style="fill:#e0e0e0"></rect><rect x="187.59" y="265.06" width="7.93" height="34.09" style="fill:#ebebeb"></rect><rect x="234.07" y="264.63" width="7.93" height="34.09" transform="translate(-44.38 44.52) rotate(-9.78)" style="fill:#ebebeb"></rect><rect x="159.07" y="269.55" width="7.93" height="29.6" style="fill:#ebebeb"></rect><rect x="177.3" y="269.55" width="7.93" height="29.6" style="fill:#ebebeb"></rect><rect x="223.3" y="269.55" width="7.93" height="29.6" style="fill:#ebebeb"></rect><rect x="201.31" y="269.04" width="7.93" height="29.6" transform="translate(-56.68 51.28) rotate(-12.53)" style="fill:#ebebeb"></rect><rect x="169.89" y="263.37" width="3.96" height="35.78" style="fill:#ebebeb"></rect><rect x="217.06" y="263.37" width="3.96" height="35.78" style="fill:#ebebeb"></rect><rect x="142.84" y="264.63" width="7.93" height="34.09" transform="translate(-45.71 29.03) rotate(-9.78)" style="fill:#ebebeb"></rect><rect x="132.07" y="269.55" width="7.93" height="29.6" style="fill:#ebebeb"></rect><rect x="110.08" y="269.04" width="7.93" height="29.6" transform="translate(-58.85 31.49) rotate(-12.53)" style="fill:#ebebeb"></rect><rect x="125.83" y="263.37" width="3.96" height="35.78" style="fill:#ebebeb"></rect><rect x="76.24" y="157.31" width="25.91" height="220.8" transform="translate(178.4 535.43) rotate(180)" style="fill:#e0e0e0"></rect><polygon points="419.42 130.51 386.19 111.18 360.59 111.18 326.81 129.6 326.81 254.89 419.42 254.89 419.42 130.51" style="fill:#e0e0e0"></polygon><path d="M325.86,130.52l.95-.92a65.8,65.8,0,0,1,45.83-18.42h0a65.8,65.8,0,0,1,45.83,18.42l.95.92V254.89H325.86Zm87.36,2.66a60,60,0,0,0-81.16,0v115.5h81.16Z" style="fill:#fafafa"></path><polygon points="374.97 249.43 370.31 249.43 370.31 207.85 330.89 207.85 330.89 203.19 370.31 203.19 370.31 160.67 330.89 160.67 330.89 156.01 370.31 156.01 370.31 116.59 374.97 116.59 374.97 156.01 414.39 156.01 414.39 160.67 374.97 160.67 374.97 203.19 414.39 203.19 414.39 207.85 374.97 207.85 374.97 249.43" style="fill:#f0f0f0"></polygon><path d="M322.75,129.25l.91-.91a69.34,69.34,0,0,1,98,0l.91.91V258H322.75Zm93.57,2.59a63.13,63.13,0,0,0-87.36,0V251.78h87.36Z" style="fill:#f0f0f0"></path></g><g id="freepik--Shadow--inject-103"><ellipse id="freepik--path--inject-103" cx="250" cy="416.24" rx="193.89" ry="11.32" style="fill:#f5f5f5"></ellipse></g><g id="freepik--Device--inject-103"><rect x="390.59" y="129.32" width="3.1" height="16.01" rx="0.69" transform="translate(529.46 -254.81) rotate(90)" style="fill:#263238"></rect><rect x="187.62" y="176.18" width="272.06" height="193.8" rx="6.63" transform="translate(596.74 -50.57) rotate(90)" style="fill:#263238"></rect><rect x="185.12" y="178.68" width="272.06" height="188.8" rx="6.63" transform="translate(594.24 -48.07) rotate(90)" style="fill:#fff;opacity:0.2"></rect><circle cx="317.66" cy="142.09" r="1.78" style="fill:#fff;isolation:isolate;opacity:0.6000000000000001"></circle><circle cx="325.54" cy="142.09" r="0.89" style="fill:#fff;isolation:isolate;opacity:0.6000000000000001"></circle><circle cx="321.15" cy="399.38" r="5.46" style="fill:#fff"></circle><rect x="199.73" y="180.04" width="242.84" height="177.9" transform="translate(590.14 -52.16) rotate(90)" style="fill:#407BFF"></rect><rect x="203.51" y="183.82" width="235.28" height="177.9" transform="translate(593.92 -48.39) rotate(90)" style="fill:#fff;isolation:isolate;opacity:0.8"></rect><circle cx="394.01" cy="151.32" r="1.68" style="fill:#fff;isolation:isolate;opacity:0.6000000000000001"></circle><circle cx="399.81" cy="151.32" r="1.68" style="fill:#fff;isolation:isolate;opacity:0.6000000000000001"></circle><circle cx="405.61" cy="151.32" r="1.68" style="fill:#fff;isolation:isolate;opacity:0.6000000000000001"></circle><rect x="232.2" y="155.13" width="177.9" height="10.76" style="isolation:isolate;opacity:0.2"></rect><path d="M404.72,163.08H349.66a2.57,2.57,0,0,1-2.57-2.57h0a2.57,2.57,0,0,1,2.57-2.57h55.06a2.57,2.57,0,0,1,2.57,2.57h0A2.57,2.57,0,0,1,404.72,163.08Z" style="fill:#fff;isolation:isolate;opacity:0.6000000000000001"></path><path d="M296.17,182a4.62,4.62,0,0,1,4.84-4.67,4.51,4.51,0,0,1,3.47,1.43l-.84.82a3.51,3.51,0,1,0,0,4.84l.84.82a4.52,4.52,0,0,1-3.48,1.44A4.62,4.62,0,0,1,296.17,182Z" style="fill:#263238"></path><path d="M314.21,177.48v9.13H312.9v-4.07h-5.24v4.07h-1.31v-9.13h1.31v3.93h5.24v-3.93Z" style="fill:#263238"></path><path d="M322.77,184.33h-4.85l-1,2.28h-1.34l4.14-9.13H321l4.15,9.13h-1.37Zm-.45-1.05-2-4.47-2,4.47Z" style="fill:#263238"></path><path d="M333.88,180.66c0,2-1.44,3.19-3.81,3.19h-2.26v2.76h-1.3v-9.13h3.56C332.44,177.48,333.88,178.68,333.88,180.66Zm-1.31,0c0-1.3-.87-2-2.54-2h-2.22v4.1H330C331.7,182.71,332.57,182,332.57,180.66Z" style="fill:#263238"></path><path d="M337.33,178.61H334.2v-1.13h7.55v1.13h-3.13v8h-1.29Z" style="fill:#263238"></path><path d="M349.8,185.48v1.13h-6.62v-9.13h6.44v1.13h-5.14v2.81h4.58v1.11h-4.58v2.95Z" style="fill:#263238"></path><path d="M358,186.61l-2-2.8-.58,0h-2.25v2.78h-1.31v-9.13h3.56c2.38,0,3.81,1.2,3.81,3.18a2.89,2.89,0,0,1-2,2.89l2.17,3.06Zm0-6c0-1.3-.88-2-2.55-2h-2.21v4.11h2.21C357.11,182.72,358,182,358,180.66Z" style="fill:#263238"></path><polygon points="363.12 165.89 363.12 212.92 377.54 198.51 391.22 212.19 391.22 165.89 363.12 165.89" style="fill:#407BFF"></polygon><path d="M382.15,187.08c0,2.44-1.8,4.42-5.47,4.42a8.22,8.22,0,0,1-5.31-1.75l.95-1.64a6.5,6.5,0,0,0,4.36,1.55c2.17,0,3.41-1,3.41-2.56s-1.1-2.52-3.58-2.52h-1.16v-1.45l3.64-4.46h-7v-1.8h9.54v1.41L377.79,183C380.68,183.22,382.15,184.85,382.15,187.08Z" style="fill:#fff"></path><path d="M260,238.14c0,3.2-2.31,5.13-6.13,5.13h-3.63v4.45h-2.1V233h5.73C257.69,233,260,235,260,238.14Zm-2.1,0c0-2.1-1.4-3.29-4.09-3.29h-3.57v6.59h3.57C256.5,241.44,257.9,240.24,257.9,238.14Z" style="fill:#263238"></path><path d="M392.41,234.27h-129a.5.5,0,0,1,0-1h129a.5.5,0,0,1,0,1Z"></path><path d="M392.41,239.46h-129a.5.5,0,0,1-.5-.5.5.5,0,0,1,.5-.5h129a.51.51,0,0,1,.5.5A.5.5,0,0,1,392.41,239.46Z"></path><path d="M392.41,244.65h-129a.5.5,0,0,1-.5-.5.5.5,0,0,1,.5-.5h129a.51.51,0,0,1,.5.5A.5.5,0,0,1,392.41,244.65Z"></path><path d="M392.41,249.84h-129a.5.5,0,0,1-.5-.5.5.5,0,0,1,.5-.5h129a.51.51,0,0,1,.5.5A.5.5,0,0,1,392.41,249.84Z"></path><path d="M392.41,255h-144a.5.5,0,0,1-.5-.5.5.5,0,0,1,.5-.5h144a.5.5,0,0,1,.5.5A.51.51,0,0,1,392.41,255Z"></path><path d="M392.41,260.23h-144a.5.5,0,0,1-.5-.5.5.5,0,0,1,.5-.5h144a.5.5,0,0,1,.5.5A.51.51,0,0,1,392.41,260.23Z"></path><path d="M392.41,265.42h-144a.5.5,0,0,1-.5-.5.5.5,0,0,1,.5-.5h144a.5.5,0,0,1,.5.5A.51.51,0,0,1,392.41,265.42Z"></path><path d="M392.41,270.61h-144a.5.5,0,1,1,0-1h144a.5.5,0,0,1,0,1Z"></path><path d="M312.4,275.8H248.45a.5.5,0,0,1,0-1H312.4a.5.5,0,0,1,0,1Z"></path><path d="M392.41,287.27h-128a.5.5,0,0,1-.5-.5.5.5,0,0,1,.5-.5h128a.51.51,0,0,1,.5.5A.5.5,0,0,1,392.41,287.27Z"></path><path d="M392.41,292.46h-144a.5.5,0,0,1-.5-.5.5.5,0,0,1,.5-.5h144a.51.51,0,0,1,.5.5A.5.5,0,0,1,392.41,292.46Z"></path><path d="M392.41,297.66h-144a.5.5,0,0,1-.5-.5.5.5,0,0,1,.5-.5h144a.5.5,0,0,1,.5.5A.51.51,0,0,1,392.41,297.66Z"></path><path d="M392.41,302.85h-144a.5.5,0,0,1-.5-.5.5.5,0,0,1,.5-.5h144a.5.5,0,0,1,.5.5A.51.51,0,0,1,392.41,302.85Z"></path><path d="M392.41,308h-144a.5.5,0,0,1,0-1h144a.5.5,0,0,1,0,1Z"></path><path d="M392.41,313.23h-144a.5.5,0,0,1,0-1h144a.5.5,0,1,1,0,1Z"></path><path d="M392.41,318.42h-144a.5.5,0,0,1,0-1h144a.5.5,0,0,1,0,1Z"></path><path d="M392.41,323.61h-144a.5.5,0,0,1-.5-.5.5.5,0,0,1,.5-.5h144a.51.51,0,0,1,.5.5A.5.5,0,0,1,392.41,323.61Z"></path><path d="M362.4,328.8H248.45a.5.5,0,0,1-.5-.5.5.5,0,0,1,.5-.5h114a.5.5,0,0,1,.5.5A.5.5,0,0,1,362.4,328.8Z"></path><path d="M392.41,341.28h-128a.5.5,0,0,1-.5-.5.5.5,0,0,1,.5-.5h128a.5.5,0,0,1,.5.5A.51.51,0,0,1,392.41,341.28Z"></path><path d="M392.41,346.47h-144a.5.5,0,0,1,0-1h144a.5.5,0,1,1,0,1Z"></path><path d="M392.41,351.66h-144a.5.5,0,0,1,0-1h144a.5.5,0,0,1,0,1Z"></path><path d="M352.4,356.85H248.45a.5.5,0,1,1,0-1h104a.5.5,0,0,1,0,1Z"></path><path d="M388.1,372.05v.61l-2.54,5.69h-1l2.49-5.52h-2.88V374h-.86v-1.9Z" style="fill:#263238"></path><path d="M393.13,376.49c0,1.07-.78,1.93-2.38,1.93a3.6,3.6,0,0,1-2.32-.77l.42-.71a2.81,2.81,0,0,0,1.9.68c.94,0,1.48-.43,1.48-1.12s-.47-1.1-1.55-1.1h-.51v-.63l1.59-1.94h-3v-.78h4.16v.61l-1.65,2C392.49,374.81,393.13,375.52,393.13,376.49Z" style="fill:#263238"></path><rect x="405.61" y="165.89" width="4.5" height="224.52" style="isolation:isolate;opacity:0.4"></rect><rect x="405.61" y="203.93" width="4.5" height="26.9" rx="2.25" style="fill:#fff;isolation:isolate;opacity:0.30000000000000004"></rect><rect x="417.9" y="194.09" width="3.43" height="26.64" rx="1.07" style="fill:#263238"></rect><rect x="417.9" y="164.09" width="3.43" height="26.64" rx="1.07" style="fill:#263238"></rect><rect x="417.9" y="194.09" width="3.43" height="26.64" rx="1.07" style="fill:#fff;opacity:0.2"></rect><rect x="417.9" y="164.09" width="3.43" height="26.64" rx="1.07" style="fill:#fff;opacity:0.2"></rect></g><g id="freepik--Character--inject-103"><path d="M205.33,360.33H100.24l-16-82.7a14.65,14.65,0,0,1,14.38-17.44h75.24a14.65,14.65,0,0,1,14.38,11.87Z" style="fill:#407BFF"></path><path d="M130.09,360.33H100.24l-16-82.7a14.65,14.65,0,0,1,14.38-17.44h0A14.66,14.66,0,0,1,113,272.06Z" style="fill:#407BFF"></path><g style="isolation:isolate;opacity:0.2"><path d="M205.33,360.33H100.24l-16-82.7a14.65,14.65,0,0,1,14.38-17.44h75.24a14.65,14.65,0,0,1,14.38,11.87Z" style="fill:#fff"></path></g><path d="M205.33,360.17H130.09L113,272A14.58,14.58,0,0,0,98.61,260.2h75.24A14.57,14.57,0,0,1,188.23,272Z" style="fill:#fff;isolation:isolate;opacity:0.2"></path><path d="M169.29,250.87s-3.95,15.48-15.19,13.06-11.61-17.17-11.61-17.17-1.73,4.58-1.33,7.08a7.42,7.42,0,0,1-.06-7.08s-3,1.59-3,4.11a4.18,4.18,0,0,1,1.85-5.1s-6.7,1.52-4-7.72,11.35-4.29,10.44,1.18a12.41,12.41,0,0,1,8-3.42C159.31,235.55,174.12,241.54,169.29,250.87Z" style="fill:#263238"></path><path d="M172.29,271c4.93,1.59,10.77,22.47,12.29,23.19s7.59-13.06,7.59-13.06l.71-5.83,2.05-3.64s3.14,4.29,3.15,6.49-3.84,5.11-3.84,5.11-6,20.88-10.22,20.07-11.84-16.89-11.84-16.89Z" style="fill:#e4897b"></path><path d="M223.09,338.75c-.09.15-.18.21-.29.19-3-.54-11,3.83-20.66,8.87l-2.72,1.4c-.31.17-.62.32-.93.47-4.9,2.51-10.1,5-15.25,7.1-6.05,2.46-12,4.28-17.28,4.67-.72.06-1.41.08-2.1.08-23.6,0-15.91-38.95-15.91-38.95l28.19-2.16,3.33,5.73,1.8,3.1,4.07-1.09c2-.55,5.08-1.26,8.58-2l.81-.18c1.17-.25,2.39-.49,3.64-.74,9.2-1.87,19.76-3.67,23.67-3.69C224.84,321.53,224.35,336.9,223.09,338.75Z" style="fill:#e4897b"></path><path d="M194.46,324.65l5.47,27.11s-18.83,15.3-35,9.33-11.11-33.54-11.11-33.54l19.83-12.49,7.91,11.06Z" style="fill:#263238"></path><polygon points="193.53 324.13 199.22 353.47 202.64 350.77 198.08 323.56 193.53 324.13" style="fill:#263238"></polygon><polygon points="202.64 350.77 199.22 353.47 199.03 352.45 198.49 349.68 196.17 337.75 193.92 326.16 193.67 324.85 193.52 324.13 198.09 323.56 198.37 325.24 200.5 338 202.14 347.81 202.64 350.77" style="fill:#fff;isolation:isolate;opacity:0.4"></polygon><path d="M223.09,338.75c-.09.15-.18.21-.29.19-3-.54-11,3.83-20.66,8.87l.5,3-3.42,2.7-.19-1.12a78.21,78.21,0,0,1-11.47,6.53h0l-4.31-2.2L177,353.42l2.56-23.31,3.7,5.13s8.63,2.09,12.9,2.5l1,.09c1.17.1,2.32.16,3.38.17.76,0,1.46,0,2.14-.06C210,337.43,217.93,337.16,223.09,338.75Z" style="isolation:isolate;opacity:0.2"></path><path d="M282.41,354.49l-.26,5.64-.66,0-4.56.23c-12.1.55-42.12,1.61-54.92-.95l-58.82,1.14,12.93-22.65L257,350.53l24.89,3.87Z" style="fill:#e4897b"></path><path d="M292.13,347.76c-.11,2.21-.19,4.2-.28,6-.12,2.52-.21,4.75-.31,6.89-.17,3.72-3.22,1.25-9.82.79-.16,0-.22-.53-.23-1.3,0-1.65.24-4.44.37-5.77l.08-.76a30.27,30.27,0,0,0,2.29-2.38,19.36,19.36,0,0,0,4.13-6.84C289.67,339.8,292.36,342.54,292.13,347.76Z" style="fill:#263238"></path><path d="M192.17,339.65l-6.62,23.13-13-1.25s-37.43,9.89-27-43.77l28.12-2.7,8.2,21.39Z" style="fill:#263238"></path><polygon points="190.75 338.39 183.27 363.15 187.69 363.15 194.24 339.65 190.75 338.39" style="fill:#263238"></polygon><polygon points="190.75 338.39 183.27 363.15 187.69 363.15 194.24 339.65 190.75 338.39" style="fill:#fff;isolation:isolate;opacity:0.4"></polygon><path d="M291.85,353.79c-.12,2.52-.21,4.75-.31,6.89-.17,3.72-3.22,1.25-9.82.79-.16,0-.22-.53-.23-1.3l-4.56.23c-6.23-3.51-15-7.6-20-9.87l24.89,3.87.08-.76a30.27,30.27,0,0,0,2.29-2.38Z" style="isolation:isolate;opacity:0.2"></path><path d="M222.05,321.55c-1,0-.33,17.2.75,17.39,4.59.83,67.2,19.31,67.2,19.31l1.82-5.49S232.31,321.49,222.05,321.55Z" style="fill:#e4897b"></path><path d="M289.26,359.31c-.6-.22,2.34-7.49,2.34-7.49s6.17-3,8.69-7.11,4.36-.73,2.71,4.23l-4.08,12.28C297.75,364.74,295.48,361.54,289.26,359.31Z" style="fill:#263238"></path><polygon points="145.06 317.62 144.78 321.89 173.88 315.72 172.62 311.01 145.06 317.62"></polygon><rect x="153.47" y="314.72" width="1.4" height="7.13" transform="translate(-55.48 33.47) rotate(-10.51)" style="fill:#263238"></rect><rect x="160.7" y="313.49" width="6.19" height="4.69" transform="translate(-65.43 43.74) rotate(-12.7)" style="fill:#fff"></rect><rect x="170.3" y="310.57" width="1.4" height="7.13" transform="translate(-54.41 36.44) rotate(-10.51)" style="fill:#263238"></rect><path d="M172.88,311.84l-27.81,5.92s.09-15.39-2.09-23.89c-.71-2.76-1.6-5.85-2.73-9.44-.48-1.52-1-3.12-1.57-4.84s-1.09-3.3-1.72-5.09a83.22,83.22,0,0,1,11.44-2.76,88.39,88.39,0,0,1,12.37-1.3c5.36-.05,11.52.56,11.52.56s.87.21,1.42,5.89C174.22,282.23,174,292.44,172.88,311.84Z" style="fill:#263238"></path><path d="M172.88,311.84l-27.81,5.92s0-.34,0-.94c-.05-1.37-.09-4-.23-7.08-.21-5-.68-11.37-1.84-15.87-.5-2-1.1-4.11-1.82-6.48l-.37-1.22c-.17-.56-.34-1.14-.53-1.73-.48-1.52-1-3.13-1.58-4.85s-1.09-3.3-1.71-5.08a81.32,81.32,0,0,1,11.43-2.76,88.41,88.41,0,0,1,12.37-1.31c5.36,0,11.52.56,11.52.56s.87.22,1.43,5.89C174.22,282.23,174,292.44,172.88,311.84Z" style="fill:#fff;isolation:isolate;opacity:0.8"></path><path d="M158.5,276.53c-6.8-.87-8.84-3.78-8.84-3.78,2.78-2.61,2.27-6.47,1.56-8.88a13.74,13.74,0,0,0-.83-2.23l8.17,1.53a24.19,24.19,0,0,0-.31,3.45,9.9,9.9,0,0,0,.23,2.53c.55,2.44,2,2.47,2,2.47C161.86,274.31,158.5,276.53,158.5,276.53Z" style="fill:#e4897b"></path><path d="M158.25,266.62a9.9,9.9,0,0,0,.23,2.53c-3.25-.43-5.71-3-7.26-5.28a13.74,13.74,0,0,0-.83-2.23l8.17,1.53A24.19,24.19,0,0,0,158.25,266.62Z" style="isolation:isolate;opacity:0.2"></path><path d="M160.43,240.23c7.52,1.54,9.12,6.06,8.09,13.93-1.29,9.83-4.84,16.27-13.83,12.28C142.49,261,147.93,237.68,160.43,240.23Z" style="fill:#e4897b"></path><path d="M163.74,252.74a16.24,16.24,0,0,0,1.55,3.57,2.11,2.11,0,0,1-2.15.45Z" style="fill:#de5753"></path><path d="M156.75,246.81a.35.35,0,0,1-.28-.13.36.36,0,0,1,.05-.51,4.34,4.34,0,0,1,3.84-.54.37.37,0,0,1,.23.46.36.36,0,0,1-.46.23,3.62,3.62,0,0,0-3.15.41A.4.4,0,0,1,156.75,246.81Z" style="fill:#263238"></path><path d="M168.65,248.37a.36.36,0,0,1-.25-.11,3.29,3.29,0,0,0-2.57-1.13.36.36,0,1,1-.11-.71,3.94,3.94,0,0,1,3.19,1.33.36.36,0,0,1,0,.51A.38.38,0,0,1,168.65,248.37Z" style="fill:#263238"></path><path d="M149.62,251.23s4.77-5.46,5.22-10.34c0,0,16.15-3,13.8,12.23,0,0,4.2-13.14-8.68-16.07s-16.68,16-11.15,23C148.81,260,146.65,254.66,149.62,251.23Z" style="fill:#263238"></path><path d="M150.52,253.07a3.37,3.37,0,0,0-2.94-3.74c-2.38-.22-4.47,4.34,1.1,6.68C149.47,256.34,150.11,255.62,150.52,253.07Z" style="fill:#e4897b"></path><path d="M162.93,259a19.92,19.92,0,0,0-1.77,2.19l-.45-.21c-2-1-2.62-2.12-2.68-3.07a2.79,2.79,0,0,1,.26-1.34,2.94,2.94,0,0,1,.4-.68,10.44,10.44,0,0,0,3.56,2.76C162.66,258.89,162.93,259,162.93,259Z" style="fill:#263238"></path><path d="M162.25,258.66l-.54.64c-1.9-.94-3.11-1.85-3.42-2.72a2.94,2.94,0,0,1,.4-.68A10.44,10.44,0,0,0,162.25,258.66Z" style="fill:#fff"></path><path d="M160.71,261c-2-1-2.62-2.12-2.68-3.07a7.43,7.43,0,0,1,2,1.55A2.67,2.67,0,0,1,160.71,261Z" style="fill:#de5753"></path><path d="M160.15,240.77s-5.55,11.76-13.32,10,7.47-15,7.47-15,13.7-2.2,18.6,5.83-4.26,11.48-4.26,11.48S171.07,243.64,160.15,240.77Z" style="fill:#263238"></path><path d="M152.68,250.47a.25.25,0,0,1-.06-.49c6.52-1.65,7.38-10,7.39-10.13a.25.25,0,0,1,.27-.23.26.26,0,0,1,.23.28c0,.08-.9,8.83-7.77,10.56Z" style="fill:#263238"></path><path d="M159.34,251.6c0,.59-.36,1.06-.76,1.05s-.7-.52-.68-1.11.37-1.07.76-1S159.37,251,159.34,251.6Z" style="fill:#263238"></path><path d="M158.5,250.51l1.32-.46S159.13,251.12,158.5,250.51Z" style="fill:#263238"></path><path d="M166.77,251.77c0,.6-.37,1.07-.77,1s-.7-.51-.67-1.11.36-1.07.76-1.05S166.79,251.17,166.77,251.77Z" style="fill:#263238"></path><path d="M165.92,250.68l1.32-.46S166.55,251.29,165.92,250.68Z" style="fill:#263238"></path><path d="M168.87,292.91h20.27a1.3,1.3,0,0,0,1.21-1l7.15-31.65a.76.76,0,0,0-.77-1H176.46a1.32,1.32,0,0,0-1.21,1l-7.15,31.65A.76.76,0,0,0,168.87,292.91Z" style="fill:#263238"></path><path d="M168.87,292.91h20.27a1.3,1.3,0,0,0,1.21-1l7.15-31.65a.76.76,0,0,0-.77-1H176.46a1.32,1.32,0,0,0-1.21,1l-7.15,31.65A.76.76,0,0,0,168.87,292.91Z" style="fill:#fff;isolation:isolate;opacity:0.2"></path><path d="M184.67,272.44c1.25,0,2,1.28,1.61,2.86s-1.66,2.85-2.9,2.85-2-1.28-1.62-2.85C183,275.3,184.31,274,184.67,272.44Z" style="fill:#fff;isolation:isolate;opacity:0.8"></path><path d="M177.67,264.43h2.15a.49.49,0,0,0,.46-.37l.59-2.6a.3.3,0,0,0-.3-.37h-2.15a.5.5,0,0,0-.46.37l-.59,2.6A.29.29,0,0,0,177.67,264.43Z" style="isolation:isolate;opacity:0.2"></path><path d="M179.47,262.07c-.06.26.08.48.3.48a.6.6,0,0,0,.51-.48c.06-.26-.07-.48-.29-.48A.6.6,0,0,0,179.47,262.07Z" style="fill:#263238"></path><path d="M178.27,262.07c-.06.26.07.48.3.48a.6.6,0,0,0,.51-.48c.06-.26-.07-.48-.3-.48A.6.6,0,0,0,178.27,262.07Z" style="fill:#263238"></path><path d="M179.16,263.45c-.06.27.07.48.3.48a.59.59,0,0,0,.51-.48c.06-.26-.07-.47-.3-.47A.59.59,0,0,0,179.16,263.45Z" style="fill:#263238"></path><path d="M178,263.45c-.06.27.07.48.29.48a.59.59,0,0,0,.52-.48c.06-.26-.08-.47-.3-.47A.59.59,0,0,0,178,263.45Z" style="fill:#263238"></path><path d="M175.26,260.28l-7.16,31.65a.76.76,0,0,0,.77,1h.84a.76.76,0,0,1-.76-1l7.15-31.65a1.31,1.31,0,0,1,1.21-1h-.85A1.3,1.3,0,0,0,175.26,260.28Z" style="isolation:isolate;opacity:0.2"></path><path d="M156.81,296.71a45.54,45.54,0,0,1-12,13c-.21-5-.68-11.37-1.84-15.87-.5-2-1.1-4.11-1.82-6.48l-.37-1.22a7.4,7.4,0,0,1,3.34-2.34,50.29,50.29,0,0,1,1.61,14.8Z" style="isolation:isolate;opacity:0.2"></path><path d="M137,274.51c-2.05.49-1,25.42,2.33,31.33S166.05,288,166.05,288l-1.42-4.3S144.12,297,143.68,296.79s.45-13,.45-13-.8-4.66-3-7.3S137,274.51,137,274.51Z" style="fill:#e4897b"></path><path d="M164.63,283.74l3.89-5.51,3,7.86s-4.32,4.25-6.33,1.84Z" style="fill:#e4897b"></path><polygon points="174.41 276.2 176.04 282.43 171.53 286.09 168.52 278.23 174.41 276.2" style="fill:#e4897b"></polygon><polygon points="266.08 416.11 271.14 416.11 269.43 399.23 262.66 399.23 266.08 416.11" style="fill:#263238"></polygon><polygon points="213.96 416.11 219.02 416.11 217.31 399.23 210.54 399.23 213.96 416.11" style="fill:#263238"></polygon><polygon points="181.42 416.11 176.36 416.11 178.07 399.23 184.84 399.23 181.42 416.11" style="fill:#263238"></polygon><polygon points="233.54 416.11 228.49 416.11 230.19 399.23 236.96 399.23 233.54 416.11" style="fill:#263238"></polygon><polygon points="107.94 416.11 102.88 416.11 104.59 399.23 111.36 399.23 107.94 416.11" style="fill:#263238"></polygon><polygon points="160.06 416.11 155 416.11 156.71 399.23 163.48 399.23 160.06 416.11" style="fill:#263238"></polygon><polygon points="181.42 416.11 176.36 416.11 178.07 399.23 184.84 399.23 181.42 416.11" style="fill:#fff;isolation:isolate;opacity:0.1"></polygon><polygon points="233.54 416.11 228.49 416.11 230.19 399.23 236.96 399.23 233.54 416.11" style="fill:#fff;isolation:isolate;opacity:0.1"></polygon><polygon points="107.94 416.11 102.88 416.11 104.59 399.23 111.36 399.23 107.94 416.11" style="fill:#fff;isolation:isolate;opacity:0.1"></polygon><polygon points="160.06 416.11 155 416.11 156.71 399.23 163.48 399.23 160.06 416.11" style="fill:#fff;isolation:isolate;opacity:0.1"></polygon><polygon points="334.44 416.11 339.49 416.11 337.79 399.23 331.02 399.23 334.44 416.11" style="fill:#263238"></polygon><polygon points="282.31 416.11 287.37 416.11 285.66 399.23 278.9 399.23 282.31 416.11" style="fill:#263238"></polygon><rect x="96.26" y="359.31" width="178.58" height="43.58" rx="7.38" style="fill:#407BFF"></rect><rect x="96.26" y="359.31" width="178.58" height="43.58" rx="7.38" style="fill:#fff;isolation:isolate;opacity:0.2"></rect><rect x="164.62" y="359.31" width="110.22" height="43.58" rx="7.38" style="fill:#fff;isolation:isolate;opacity:0.2"></rect><rect x="168.03" y="359.31" width="178.58" height="43.58" rx="7.38" style="fill:#407BFF"></rect><rect x="168.03" y="359.31" width="178.58" height="43.58" rx="7.38" style="fill:#fff;isolation:isolate;opacity:0.2"></rect><rect x="236.39" y="359.31" width="110.22" height="43.58" rx="7.38" style="fill:#fff;isolation:isolate;opacity:0.2"></rect></g><g id="freepik--Plant--inject-103"><path d="M87,377.75h-.07a.5.5,0,0,1-.43-.56c0-.09.07-1.07.15-2.77.13-2.53.34-7.83.27-14.93a2.82,2.82,0,0,0,0-.31c-.09-7.93-.52-15.73-1.26-23.21-.69-7-1.67-13.74-2.92-20.12a158.84,158.84,0,0,0-4.07-16.26v0h0c-.25-.79-.5-1.58-.76-2.36s-.43-1.29-.66-1.93c-.58-1.66-1.11-3.26-1.57-4.74-1-3.25-1.92-6.5-2.67-9.65-.46-1.9-.87-3.76-1.21-5.54a120.46,120.46,0,0,1-2.32-20.48c-.07-2.71,0-5.41.12-8a79.42,79.42,0,0,1,.88-8.21c0-.19.06-.37.09-.54l0-.26a.57.57,0,0,1,.14-.34.5.5,0,0,1,.71,0,.56.56,0,0,1,.15.5h0l0,.26c0,.18,0,.37-.09.56a77,77,0,0,0-.87,8.1c-.14,2.59-.18,5.27-.11,7.95a120.58,120.58,0,0,0,2.29,20.32c.34,1.77.75,3.61,1.21,5.49.74,3.13,1.64,6.36,2.65,9.59.46,1.47,1,3,1.56,4.71.23.64.45,1.29.67,1.94s.51,1.58.75,2.37l0,0h0a163.2,163.2,0,0,1,4.1,16.38c1.25,6.41,2.24,13.21,2.93,20.21.75,7.51,1.17,15.34,1.27,23.28,0,.12,0,.23,0,.36.08,7.09-.13,12.42-.27,15-.07,1.72-.14,2.75-.15,2.84A.51.51,0,0,1,87,377.75Z" style="fill:#407BFF"></path><path d="M71.05,238l0,0s0,0,0,0a14.73,14.73,0,0,1,6.27-3.62" style="fill:#407BFF"></path><path d="M71.05,238.48a.65.65,0,0,1-.2,0,.51.51,0,0,1-.26-.66.54.54,0,0,1,.1-.16.12.12,0,0,0,0-.05h0a15.65,15.65,0,0,1,2.87-2.19,15.37,15.37,0,0,1,3.62-1.55.5.5,0,0,1,.27,1,14.19,14.19,0,0,0-3.38,1.45,15.15,15.15,0,0,0-2.68,2h0A.49.49,0,0,1,71.05,238.48Z" style="fill:#407BFF"></path><path d="M70.06,247.35a.51.51,0,0,1-.32-.12l-3.38-2.8a.52.52,0,0,1-.07-.71.51.51,0,0,1,.71-.07l3.38,2.81a.5.5,0,0,1,.07.71A.53.53,0,0,1,70.06,247.35Z" style="fill:#407BFF"></path><path d="M76.13,290.93a.54.54,0,0,1-.51-.52h0a12.49,12.49,0,0,1,.69-2.74,13.4,13.4,0,0,1,1.86-3.5,13.09,13.09,0,0,1,2-2.19.5.5,0,0,1,.66.76,12.41,12.41,0,0,0-1.88,2A12.18,12.18,0,0,0,77.25,288a12.77,12.77,0,0,0-.63,2.45.46.46,0,0,1-.48.48Z" style="fill:#407BFF"></path><path d="M79.13,299.94a.51.51,0,0,1-.46-.3,8.49,8.49,0,0,0-5-4.53.5.5,0,1,1,.31-.95,9.46,9.46,0,0,1,5.61,5.07.49.49,0,0,1-.25.66A.53.53,0,0,1,79.13,299.94Z" style="fill:#407BFF"></path><path d="M86.78,344.65c-1.15-1.26-2.19-6.23-2.75-8.89-.14-.64-.25-1.18-.34-1.58" style="fill:#407BFF"></path><path d="M86.78,345.16a.52.52,0,0,1-.38-.17c-1.14-1.26-2.08-5.37-2.87-9.13-.13-.63-.24-1.17-.33-1.56a.5.5,0,1,1,1-.23c.1.39.21.94.35,1.59.51,2.43,1.57,7.49,2.63,8.66a.51.51,0,0,1-.37.84Z" style="fill:#407BFF"></path><path d="M73.47,281.3a.5.5,0,0,1-.51-.47c-.06-.82-1.34-20.18,9.34-27.93a.5.5,0,0,1,.7.12.49.49,0,0,1-.11.7c-10.23,7.41-8.94,26.84-8.92,27a.5.5,0,0,1-.47.54Z" style="fill:#407BFF"></path><path d="M74.35,323.42c-1.22,4.69,9.13,13.06,9.13,13.06s13.13-2.23,14.35-6.92-2.44-12.12-8.93-13.81S75.58,318.73,74.35,323.42Z" style="fill:#407BFF"></path><path d="M60.83,267.76c1.48,4.86,11.07,7.93,11.07,7.93s6.25-7.9,4.77-12.76-6.94-10-11.31-8.71S59.35,262.9,60.83,267.76Z" style="fill:#407BFF"></path><path d="M86.4,282.4a12.39,12.39,0,0,1-4,2.47,4.29,4.29,0,0,1-4.36-.83c-1.33-1.4-1.09-3.68-.37-5.48,1.43-3.56,7-9.74,11.57-8.24C95.88,272.49,89.2,280.13,86.4,282.4Z" style="fill:#407BFF"></path><path d="M73.54,291.88c.89,1,1.85,2.3,1.44,3.6a2.71,2.71,0,0,1-2.92,1.59,7.9,7.9,0,0,1-3.27-1.43c-2.36-1.48-7.19-4.61-4.34-7.86S71.65,289.74,73.54,291.88Z" style="fill:#407BFF"></path><path d="M90.72,246.7a2.33,2.33,0,0,1,2.21,1.64c.25,1.12-.65,2.15-1.53,2.9-2.19,1.85-8.81,6.87-10.53,2.38C79.24,249.38,87.69,246.49,90.72,246.7Z" style="fill:#407BFF"></path><path d="M77.49,232.26c1.41.07,2.79-.5,4.21-.47s3,1.09,2.78,2.49-1.8,1.78-3.11,1.92A25.25,25.25,0,0,1,74.7,236a2.06,2.06,0,0,1-1.38-.62c-.61-.82.25-2,1.21-2.32s2.06-.29,2.92-.84Z" style="fill:#407BFF"></path><path d="M64.15,242.55c-1.41.11-2.81-.44-4.22-.38s-3,1.16-2.72,2.55,1.83,1.74,3.14,1.85a25.29,25.29,0,0,0,6.67-.31,2,2,0,0,0,1.36-.65c.59-.83-.29-2-1.25-2.3s-2.07-.24-2.94-.76Z" style="fill:#407BFF"></path><g style="opacity:0.2"><path d="M74.35,323.42c-1.22,4.69,9.13,13.06,9.13,13.06s13.13-2.23,14.35-6.92-2.44-12.12-8.93-13.81S75.58,318.73,74.35,323.42Z"></path><path d="M60.83,267.76c1.48,4.86,11.07,7.93,11.07,7.93s6.25-7.9,4.77-12.76-6.94-10-11.31-8.71S59.35,262.9,60.83,267.76Z"></path><path d="M86.4,282.4a12.39,12.39,0,0,1-4,2.47,4.29,4.29,0,0,1-4.36-.83c-1.33-1.4-1.09-3.68-.37-5.48,1.43-3.56,7-9.74,11.57-8.24C95.88,272.49,89.2,280.13,86.4,282.4Z"></path><path d="M73.54,291.88c.89,1,1.85,2.3,1.44,3.6a2.71,2.71,0,0,1-2.92,1.59,7.9,7.9,0,0,1-3.27-1.43c-2.36-1.48-7.19-4.61-4.34-7.86S71.65,289.74,73.54,291.88Z"></path><path d="M90.72,246.7a2.33,2.33,0,0,1,2.21,1.64c.25,1.12-.65,2.15-1.53,2.9-2.19,1.85-8.81,6.87-10.53,2.38C79.24,249.38,87.69,246.49,90.72,246.7Z"></path><path d="M77.49,232.26c1.41.07,2.79-.5,4.21-.47s3,1.09,2.78,2.49-1.8,1.78-3.11,1.92A25.25,25.25,0,0,1,74.7,236a2.06,2.06,0,0,1-1.38-.62c-.61-.82.25-2,1.21-2.32s2.06-.29,2.92-.84Z"></path><path d="M64.15,242.55c-1.41.11-2.81-.44-4.22-.38s-3,1.16-2.72,2.55,1.83,1.74,3.14,1.85a25.29,25.29,0,0,0,6.67-.31,2,2,0,0,0,1.36-.65c.59-.83-.29-2-1.25-2.3s-2.07-.24-2.94-.76Z"></path></g><path d="M70.66,239.86h0a.5.5,0,0,1-.46-.54c.19-2.75-.11-5.39-.62-5.54a.52.52,0,0,1-.35-.63.51.51,0,0,1,.63-.34c1.59.47,1.47,4.76,1.34,6.58A.5.5,0,0,1,70.66,239.86Z" style="fill:#407BFF"></path><path d="M71.27,235.09c.32-2.08.62-4.27-.14-6.23s-3-3.5-5-2.74c-2.19.85-2.58,4-1.35,6s3.5,3.08,5.63,4.06l.61-.84Z" style="fill:#407BFF"></path><g style="opacity:0.2"><path d="M71.27,235.09c.32-2.08.62-4.27-.14-6.23s-3-3.5-5-2.74c-2.19.85-2.58,4-1.35,6s3.5,3.08,5.63,4.06l.61-.84Z"></path></g><path d="M89.56,385.77c0,.08-.37.46,1.07.56,3.54.22,9.79.16,12.05-2.85,3.23-4.29-4.5-4.08-3.82-6.48s9-.21,10.58-3.61-4.51-2.89-4.28-4.65,6.64.69,8.62-2.91-3.5-1.79-2.65-3.28,7.71-7.61,4.82-9.09-9.31,4.93-11.47,5.58-2.85-5.81-5.66-3.73-.63,11.88-3.94,13c-2.46.84-1.21-2.62-4.27-2.56C86.44,365.83,85.47,379.45,89.56,385.77Z" style="fill:#407BFF"></path><g style="opacity:0.30000000000000004"><path d="M89.56,385.77c0,.08-.37.46,1.07.56,3.54.22,9.79.16,12.05-2.85,3.23-4.29-4.5-4.08-3.82-6.48s9-.21,10.58-3.61-4.51-2.89-4.28-4.65,6.64.69,8.62-2.91-3.5-1.79-2.65-3.28,7.71-7.61,4.82-9.09-9.31,4.93-11.47,5.58-2.85-5.81-5.66-3.73-.63,11.88-3.94,13c-2.46.84-1.21-2.62-4.27-2.56C86.44,365.83,85.47,379.45,89.56,385.77Z"></path></g><path d="M104.2,367.79a13.08,13.08,0,0,0-3.65-.14,17.83,17.83,0,0,1,1.78-1.63.51.51,0,1,0-.61-.81,26.39,26.39,0,0,0-2.9,2.83.41.41,0,0,0-.18.21c-.42.47-.86,1-1.32,1.57a21.72,21.72,0,0,1,3.27-10.39.5.5,0,0,0-.13-.7.51.51,0,0,0-.7.13,22.05,22.05,0,0,0-3.44,12.29,44.78,44.78,0,0,0-3.44,5.62h0a.47.47,0,0,0-.12.23c-.45.89-.89,1.84-1.32,2.83a16.82,16.82,0,0,1-.56-6.81.5.5,0,0,0-.44-.55.49.49,0,0,0-.56.43,16.91,16.91,0,0,0,1,8.34A54.13,54.13,0,0,0,88,391.09a.51.51,0,0,0,.4.59h.1a.5.5,0,0,0,.49-.41,50.8,50.8,0,0,1,4.66-13.88,6.12,6.12,0,0,1,5.84-1.35.5.5,0,0,0,.3-1,6.73,6.73,0,0,0-5.13.43,39.21,39.21,0,0,1,4.73-6.64,10.61,10.61,0,0,1,4.61-.1.5.5,0,1,0,.17-1Z" style="opacity:0.2"></path><path d="M87.87,389.59c-2.74.17-7.52-2.17-9.46-4.56s3.33-1.1,2.71-3-7-.21-8.33-3,3.37-2.32,3.12-3.75-5.06-.93-6.74-3.86,2.64-1.44,1.92-2.65-6.27-6.21-4.09-7.4,7.4,4,9.1,4.58,1.92-3.25,4.17-1.55,1,9.64,3.58,10.57c1.94.69,1-2.88,3.2-2.06C91,374.31,89,389.52,87.87,389.59Z" style="fill:#407BFF"></path><g style="opacity:0.2"><path d="M87.87,389.59c-2.74.17-7.52-2.17-9.46-4.56s3.33-1.1,2.71-3-7-.21-8.33-3,3.37-2.32,3.12-3.75-5.06-.93-6.74-3.86,2.64-1.44,1.92-2.65-6.27-6.21-4.09-7.4,7.4,4,9.1,4.58,1.92-3.25,4.17-1.55,1,9.64,3.58,10.57c1.94.69,1-2.88,3.2-2.06C91,374.31,89,389.52,87.87,389.59Z"></path></g><path d="M88.63,391.49a51.29,51.29,0,0,0-2-6s0,0,0-.06a14.73,14.73,0,0,0,.93-7.56.5.5,0,1,0-1,.12,14.59,14.59,0,0,1-.55,6.18q-1-2.26-2.09-4.28a.49.49,0,0,0-.14-.48,1.08,1.08,0,0,0-.22-.18c-.57-1-1.14-2-1.72-2.88a19.24,19.24,0,0,0-3.09-10.81.49.49,0,0,0-.69-.12.5.5,0,0,0-.13.7,19,19,0,0,1,2.88,8.67A50.65,50.65,0,0,0,74,366.57a.5.5,0,0,0-.71,0,.5.5,0,0,0,0,.7,47.79,47.79,0,0,1,5.2,5.94,14.62,14.62,0,0,0-5-.6.52.52,0,0,0-.47.53.51.51,0,0,0,.54.47,13.71,13.71,0,0,1,5.48.83l.06,0,.11,0h.1a.15.15,0,0,0,.07,0c.8,1.13,1.63,2.39,2.45,3.75a6.37,6.37,0,0,0-4.24-.12.51.51,0,0,0-.33.63.51.51,0,0,0,.63.33,5.48,5.48,0,0,1,4.89.8,51.52,51.52,0,0,1,4.82,11.84.5.5,0,0,0,.48.37h.13A.51.51,0,0,0,88.63,391.49Z" style="opacity:0.2"></path><path d="M107.19,397.3c0,10.39,4.59,18.81-18.81,18.81-20.8,0-18.82-8.42-18.82-18.81S78,384,88.38,384,107.19,386.9,107.19,397.3Z" style="fill:#263238"></path><rect x="67.58" y="383.76" width="41.66" height="10.31" style="fill:#263238"></rect><rect x="67.58" y="383.76" width="41.66" height="10.31" style="fill:#fff;isolation:isolate;opacity:0.2"></rect></g></svg>