<svg xmlns="http://www.w3.org/2000/svg" width="79" height="80" viewBox="0 0 79 80"><defs><linearGradient id="a" x1="0%" y1="50%" y2="50%"><stop offset="0%" stopColor="#1974AB"></stop><stop offset="100%" stopColor="#045281"></stop></linearGradient><linearGradient id="b" x1="0%" y1="50%" y2="50%"><stop offset="0%" stopColor="#1B99E5"></stop><stop offset="100%" stopColor="#1974AB"></stop></linearGradient></defs><g fill="none" fill-rule="evenodd"><path fill="url(#a)" d="M73.3 66.793a105.43 105.43 0 0 0-21.415-4.913V47.89c7.248.883 14.426 2.52 21.416 4.913a4850.2 4850.2 0 0 0-2.382 5.875c.797 2.695 1.59 5.4 2.382 8.115M4.986 52.803A105.43 105.43 0 0 1 26.4 47.89v13.99a105.43 105.43 0 0 0-21.415 4.913c.791-2.491 1.585-4.972 2.381-7.443a7888.96 7888.96 0 0 0-2.381-6.547"></path><path fill="url(#b)" d="M14.638 9.47A36.732 36.732 0 0 1 .095 6.487C4.024 49.97 30.978 73.36 39.131 79.497v.018a.136.136 0 0 1 .012-.01.13.13 0 0 1 .012.01v-.018C47.309 73.36 74.262 49.97 78.19 6.487A36.731 36.731 0 0 1 63.65 9.47 36.712 36.712 0 0 1 39.143.139a36.713 36.713 0 0 1-24.505 9.33"></path><path fill="#FFF" fill-rule="nonzero" d="M22.401 27.241v-7.477l-1.661.408-.436-1.716 2.738-.817h1.43v9.602h-2.07zm11.347-1.24c-.79.936-1.812 1.404-3.065 1.404s-2.27-.468-3.051-1.403c-.781-.935-1.172-2.111-1.172-3.528 0-1.407.395-2.581 1.185-3.52.79-.94 1.812-1.41 3.065-1.41 1.244 0 2.259.467 3.044 1.402.786.936 1.179 2.112 1.179 3.528 0 1.408-.395 2.584-1.185 3.528zm-4.563-1.348c.39.573.899.859 1.525.859.627 0 1.128-.284 1.505-.852.377-.567.565-1.296.565-2.186 0-.872-.195-1.596-.585-2.172-.39-.577-.895-.865-1.512-.865-.618 0-1.117.283-1.498.851-.382.568-.572 1.296-.572 2.186 0 .88.19 1.607.572 2.18zm14.506 1.349c-.79.935-1.812 1.403-3.065 1.403s-2.27-.468-3.051-1.403c-.781-.935-1.171-2.111-1.171-3.528 0-1.407.395-2.581 1.185-3.52.79-.94 1.811-1.41 3.064-1.41 1.244 0 2.259.467 3.044 1.402.786.936 1.179 2.112 1.179 3.528 0 1.408-.395 2.584-1.185 3.528zm-4.563-1.349c.39.573.899.859 1.525.859.627 0 1.128-.284 1.505-.852.377-.567.566-1.296.566-2.186 0-.872-.196-1.596-.586-2.172-.39-.577-.895-.865-1.512-.865s-1.117.283-1.498.851c-.382.568-.572 1.296-.572 2.186 0 .88.19 1.607.572 2.18zM50.2 21.766c-.436.472-.994.708-1.675.708s-1.235-.234-1.662-.701c-.427-.468-.64-1.047-.64-1.737 0-.69.218-1.269.654-1.737.436-.467.994-.701 1.675-.701s1.235.234 1.662.701c.427.468.64 1.047.64 1.737 0 .681-.218 1.258-.654 1.73zm-3.023 5.475l6.96-9.534h1.62l-6.96 9.534h-1.62zm8.88-.599c-.436.472-.994.708-1.675.708s-1.235-.233-1.662-.701c-.427-.468-.64-1.047-.64-1.737 0-.69.218-1.269.654-1.736.436-.468.994-.702 1.675-.702s1.235.234 1.662.702c.427.467.64 1.046.64 1.736 0 .681-.218 1.258-.654 1.73zm-7.505-5.407a.73.73 0 0 0 .64-.348c.155-.231.232-.515.232-.851 0-.327-.084-.608-.252-.844-.168-.237-.384-.355-.647-.355a.733.733 0 0 0-.64.34c-.155.228-.232.514-.232.859 0 .327.084.608.252.845.168.236.384.354.647.354zm5.857 4.876a.73.73 0 0 0 .64-.347c.155-.232.232-.516.232-.852 0-.327-.084-.608-.252-.844-.168-.236-.384-.354-.647-.354a.733.733 0 0 0-.64.34c-.155.227-.232.513-.232.858 0 .327.084.609.252.845.168.236.384.354.647.354zM20.711 37.23v-5.722h2.259c.665 0 1.193.175 1.584.524.391.35.587.819.587 1.407 0 .415-.105.772-.314 1.071-.208.3-.482.521-.822.665-.339.143-.723.215-1.15.215h-1.138v1.84H20.71zm1.006-2.746h1.169c.375 0 .674-.095.898-.285a.94.94 0 0 0 .335-.752c0-.33-.11-.583-.33-.758-.219-.176-.52-.264-.903-.264h-1.17v2.06zm4.59 2.746v-5.722h2.55c.662 0 1.182.165 1.56.494.377.33.566.773.566 1.33 0 .451-.122.823-.367 1.115-.245.29-.577.496-.998.616l1.545 2.167h-1.185l-1.421-1.995h-1.245v1.995h-1.006zm1.005-2.885h1.472c.36 0 .646-.088.858-.264a.873.873 0 0 0 .32-.71c0-.303-.104-.537-.312-.7-.207-.164-.498-.246-.874-.246h-1.464v1.92zm5.096 2.885v-5.722h1.006v5.722h-1.006zm2.176-5.722h1.113l1.724 4.397 1.716-4.397h1.09l-2.38 5.762h-.885l-2.378-5.762zm5.447 5.722l2.518-5.762h.934l2.514 5.762h-1.062l-.578-1.38H41.65l-.59 1.38h-1.03zm1.987-2.27h1.972L43 32.668l-.982 2.29zm4.49-.591a3.036 3.036 0 0 1 .822-2.091 2.77 2.77 0 0 1 .938-.633c.37-.155.766-.233 1.189-.233.492 0 .913.076 1.263.23.35.152.675.372.976.66l-.643.742a3.152 3.152 0 0 0-.758-.527 1.932 1.932 0 0 0-.846-.183c-.356 0-.68.09-.97.271-.29.18-.515.426-.676.736-.161.31-.241.653-.241 1.028 0 .566.18 1.047.538 1.442.36.395.809.593 1.349.593.33 0 .62-.061.868-.184.249-.122.507-.308.776-.558l.647.654c-.213.22-.424.402-.633.543a2.73 2.73 0 0 1-.742.341c-.286.086-.602.13-.948.13a2.89 2.89 0 0 1-1.486-.391 2.785 2.785 0 0 1-1.046-1.07 3.036 3.036 0 0 1-.377-1.5zm5.75-2.861h1.186l1.6 2.534 1.62-2.534h1.154l-2.275 3.443v2.279h-1.014v-2.255l-2.27-3.467zM12.713 35.305h5.593v-.8h-5.593zM59.931 35.305h5.594v-.8H59.93z"></path><path fill="#00466F" fill-rule="nonzero" d="M2.635 11.076c2.223 16.609 7.977 31.164 16.34 43.72 6.045 9.076 12.87 16.283 19.54 21.666l.628.507.628-.507c6.671-5.383 13.496-12.59 19.54-21.666 8.364-12.555 14.117-27.111 16.34-43.72l.203-1.517-1.47.423a38.733 38.733 0 0 1-10.735 1.501 38.803 38.803 0 0 1-23.89-8.21l-.616-.48-.615.48a38.801 38.801 0 0 1-23.89 8.21c-3.67 0-7.264-.503-10.736-1.5l-1.47-.423.203 1.516zm12.003 2.407A40.802 40.802 0 0 0 39.143 5.32a40.804 40.804 0 0 0 24.506 8.163c3.339 0 6.62-.396 9.81-1.184-2.318 15.678-7.862 29.454-15.812 41.389-5.735 8.61-12.182 15.5-18.504 20.706-6.321-5.205-12.769-12.096-18.504-20.707-7.79-11.696-13.27-25.16-15.67-40.45l-.142-.938a40.851 40.851 0 0 0 9.81 1.184z"></path><path fill="#57C0FF" d="M68.199 61.29a89.7 89.7 0 0 0-58.111 0V47.3a89.7 89.7 0 0 1 58.11 0v13.99z"></path><path fill="#FFF" fill-rule="nonzero" d="M15.855 53.1c0-.35.063-.704.189-1.065.127-.36.3-.694.518-1.003.22-.309.488-.585.806-.825.318-.24.658-.416 1.021-.525.414-.125.768-.172 1.061-.145.294.026.575.12.843.277-.185.274-.37.549-.554.825a1.718 1.718 0 0 0-.63-.229c-.209-.029-.46 0-.754.09a1.98 1.98 0 0 0-.814.493c-.246.24-.438.52-.576.84-.138.318-.207.64-.207.964 0 .344.068.63.205.857a.99.99 0 0 0 .589.452c.255.076.548.063.879-.037a2.71 2.71 0 0 0 1.198-.728v-.945c-.424.12-.846.243-1.267.37v-.769a70.19 70.19 0 0 1 2.108-.602v2.114c-.603.687-1.293 1.143-2.067 1.376-.505.152-.952.179-1.342.077a1.46 1.46 0 0 1-.896-.639c-.207-.324-.31-.732-.31-1.224M21.53 51.797v-2.9c.291-.075.584-.147.877-.217v2.87c0 .462.11.79.333.987.222.197.532.25.93.161.397-.087.707-.271.93-.556.223-.286.335-.657.334-1.114v-2.905c.295-.06.59-.117.885-.173v2.855c0 .736-.193 1.332-.577 1.794-.385.462-.914.762-1.586.91-.664.147-1.184.081-1.561-.206-.378-.287-.566-.788-.566-1.506M28.175 50.584c.58-.09 1.163-.172 1.745-.248-.292-.634-.585-1.266-.877-1.897-.29.713-.579 1.428-.868 2.145m-1.755 2.291c.74-1.823 1.482-3.635 2.224-5.435.276-.04.551-.08.827-.117.743 1.59 1.486 3.19 2.231 4.803-.314.033-.629.068-.943.105l-.513-1.153c-.8.1-1.599.213-2.396.34l-.521 1.3c-.303.05-.606.103-.909.157M33.466 49.425c.436-.034.873-.065 1.31-.091.32-.02.576-.11.766-.275a.805.805 0 0 0 .284-.639c0-.266-.093-.468-.278-.602-.185-.135-.444-.194-.778-.173-.435.027-.87.057-1.304.091v1.69zm-.895 2.616v-5.036c.757-.07 1.515-.127 2.274-.172.591-.036 1.055.089 1.393.365.337.277.506.662.506 1.15 0 .399-.11.73-.33.994-.219.265-.517.458-.894.582.46.613.918 1.23 1.377 1.85-.352.012-.705.025-1.057.042-.422-.566-.844-1.128-1.266-1.687-.37.024-.739.05-1.108.08v1.755c-.299.024-.597.05-.895.077zM39.168 49.741c.586 0 1.173.007 1.759.022l-.883-2.032-.876 2.01m-1.773 2.02c.75-1.71 1.498-3.406 2.247-5.09.277 0 .555.004.833.01.747 1.704 1.495 3.42 2.241 5.146-.315-.015-.63-.029-.946-.04l-.516-1.232a71.483 71.483 0 0 0-2.413-.03l-.527 1.219c-.306.004-.613.01-.919.017M43.588 51.876V46.84c.277.017.554.036.832.056a322.51 322.51 0 0 1 2.725 3.736V47.15c.293.032.585.067.878.103v5.036l-.747-.089c-.934-1.3-1.87-2.582-2.807-3.845v3.582a64.821 64.821 0 0 0-.881-.06M48.953 48.196v-.822c1.373.189 2.742.417 4.104.686v.822a73.327 73.327 0 0 0-1.602-.297v4.213c-.296-.05-.592-.1-.888-.148v-4.214a71.034 71.034 0 0 0-1.614-.24M53.99 53.286V48.25a72.01 72.01 0 0 1 3.706.884v.784c-.938-.251-1.88-.481-2.824-.693v1.327c.837.188 1.672.39 2.504.609v.783a72.066 72.066 0 0 0-2.504-.609v1.36c.956.214 1.91.447 2.858.701v.783a72.023 72.023 0 0 0-3.74-.893M58.766 54.464V49.43c1.225.347 2.443.727 3.653 1.141v.783a71.87 71.87 0 0 0-2.783-.888v1.327c.826.245 1.65.506 2.469.782v.783a72.118 72.118 0 0 0-2.469-.782v1.359c.944.28 1.883.58 2.817.9v.783a71.625 71.625 0 0 0-3.687-1.153"></path></g></svg>