<svg width="191" height="180" viewBox="0 0 191 180" fill="none" xmlns="http://www.w3.org/2000/svg">
<circle cx="90" cy="90" r="68" fill="white"/>
<path d="M156.817 142.77C140.854 163.577 115.68 177 87.3578 177H191L156.817 142.77Z" fill="#F06A22"/>
<path fill-rule="evenodd" clip-rule="evenodd" d="M156.817 142.77C168.046 128.134 174.716 109.843 174.716 90C174.716 41.9512 135.604 3 87.3578 3C39.1114 3 0 41.9512 0 90C0 138.049 39.1114 177 87.3578 177C115.68 177 140.854 163.577 156.817 142.77ZM107.111 67.7726C105.42 67.3963 103.974 66.3073 103.145 64.7859L89.1141 39.0276C88.3564 37.6365 86.3592 37.6365 85.6015 39.0276L71.5703 64.7859C70.7416 66.3073 69.2957 67.3963 67.6046 67.7726L39.5155 74.023C38.0013 74.3599 37.4305 76.2176 38.4942 77.3467L57.897 97.9413C59.1164 99.2356 59.6988 101.004 59.4872 102.77L55.981 132.028C55.7934 133.593 57.407 134.75 58.8297 134.07L84.7882 121.655C86.4143 120.877 88.3039 120.872 89.9345 121.64L116.374 134.099C117.796 134.769 119.399 133.613 119.212 132.052L115.699 102.733C115.49 100.989 116.056 99.24 117.248 97.949L136.275 77.3408C137.321 76.2077 136.745 74.3668 135.24 74.0319L107.111 67.7726Z" fill="#F06A22"/>
</svg>
